<svg width="1440" height="768" viewBox="0 0 1440 768" fill="none" xmlns="http://www.w3.org/2000/svg">
<g opacity="0.2" clip-path="url(#clip0)">
<path d="M62.5214 1147.88L61.4332 1147.4C61.5928 1147.13 77.9033 1120.79 110.508 1089.69C129.657 1071.42 150.599 1055.1 172.759 1041.18C200.459 1023.78 230.146 1010.1 260.996 1000.53C298.203 988.981 331.372 982.98 365.38 981.64C395.767 980.443 423.245 983.106 452.336 985.927C495.348 990.099 539.828 994.41 602.313 987.931C686.197 979.231 745.04 943.055 801.945 908.069C828.061 892.011 855.065 875.408 883.951 861.874C916.331 846.699 947.843 837.008 980.28 832.24C1073.48 818.545 1162.61 839.4 1256.97 861.479C1365.12 886.785 1476.96 912.953 1613.97 895.425C1747.97 878.285 1865.25 790.373 1940.05 719.64C2021.12 642.977 2071.11 569.43 2071.6 568.697L2072.67 569.221C2072.17 569.954 2022.11 643.598 1940.96 720.342C1893.28 765.424 1844.37 802.745 1795.56 831.266C1734.52 866.936 1673.49 888.869 1614.15 896.458C1552.75 904.313 1490.45 903.957 1423.7 895.369C1364.76 887.784 1309.8 874.927 1256.65 862.488C1162.42 840.44 1073.42 819.617 980.484 833.273C908.489 843.854 854.685 876.93 802.657 908.921C774.225 926.403 744.824 944.479 712.518 958.963C676.219 975.238 640.219 985.054 602.456 988.971C539.824 995.464 495.274 991.146 452.193 986.967C393.353 981.263 342.54 976.334 261.413 1001.51C191.798 1023.11 141.423 1061.76 111.424 1090.39C78.9178 1121.4 62.681 1147.62 62.5214 1147.88Z" fill="url(#paint0_linear)"/>
<path d="M57.0764 1134.44L55.9719 1133.98C56.1232 1133.72 71.3414 1107.32 102.661 1076.06C121.054 1057.7 141.32 1041.28 162.904 1027.24C189.884 1009.69 219.003 995.852 249.456 986.102C285.901 974.442 318.985 968.179 353.581 966.385C384.406 964.786 412.511 966.933 442.264 969.206C486.299 972.568 531.83 976.044 593.382 968.368C674.501 958.098 730.485 922.462 784.624 888C810.487 871.537 837.229 854.515 866.373 840.464C899.079 824.699 931.414 814.436 965.221 809.092C1058.18 794.59 1146.99 813.822 1241.02 834.181C1350.27 857.835 1463.25 882.299 1601.2 861.295C1734.13 841.372 1847.93 753.698 1919.99 683.66C1998.1 607.746 2045.34 535.631 2045.81 534.912L2046.89 535.422C2046.42 536.141 1999.11 608.357 1920.91 684.351C1874.99 728.993 1827.54 766.188 1779.9 794.908C1720.33 830.823 1660.27 853.503 1601.41 862.328C1539.58 871.743 1476.8 872.738 1409.47 865.369C1350 858.861 1294.45 846.832 1240.72 835.197C1146.82 814.866 1058.14 795.666 965.442 810.125C890.374 821.99 836.984 855.974 785.356 888.841C758.242 906.1 730.207 923.949 699.337 938.412C664.691 954.645 630.094 964.783 593.562 969.408C531.867 977.102 486.262 973.622 442.158 970.253C384.185 965.827 329.425 961.645 249.889 987.09C181.195 1009.09 132.431 1047.98 103.623 1076.73C72.3928 1107.88 57.2237 1134.18 57.0764 1134.44Z" fill="url(#paint1_linear)"/>
<path d="M51.6273 1120.99L50.5104 1120.56C50.6495 1120.3 64.7795 1093.85 94.815 1062.43C112.451 1043.98 132.046 1027.45 153.049 1013.3C179.309 995.607 207.863 981.602 237.915 971.67C315.855 945.967 372.056 949.175 431.554 952.571C476.804 955.155 523.595 957.829 584.448 948.787C662.826 937.145 715.966 901.988 767.36 867.99C792.925 851.08 819.356 833.591 848.741 819.006C881.746 802.623 914.924 791.805 950.167 785.926C1043.07 770.43 1131.77 788.073 1225.69 806.753C1335.86 828.665 1449.79 851.328 1588.43 827.143C1720.22 804.152 1830.55 716.736 1899.89 647.452C1975.05 572.359 2019.58 501.808 2020.03 501.106L2021.11 501.598C2020.66 502.303 1976.07 572.953 1900.82 648.129C1856.63 692.289 1810.66 729.352 1764.19 758.288C1706.08 794.475 1647.03 817.983 1588.67 828.162C1526.53 839.002 1463.36 841.281 1395.57 835.134C1335.67 829.702 1279.62 818.552 1225.41 807.769C1131.63 789.117 1043.05 771.498 950.404 786.949C872.116 800.005 819.245 834.984 768.117 868.811C742.328 885.871 715.66 903.514 686.209 917.956C653.191 934.146 619.973 944.567 584.665 949.81C523.665 958.869 476.8 956.195 431.476 953.608C372.117 950.219 316.047 947.017 238.361 972.637C170.57 995.038 123.419 1034.17 95.7968 1063.06C65.8473 1094.38 51.7664 1120.73 51.6273 1120.99Z" fill="url(#paint2_linear)"/>
<path d="M46.1823 1107.55L45.0491 1107.15C45.1759 1106.88 58.2218 1080.37 86.9645 1048.81C103.848 1030.27 122.764 1013.63 143.19 999.364C168.73 981.525 196.716 967.352 226.366 957.242C302.457 931.371 359.91 933.588 420.734 935.934C467.255 937.728 515.36 939.585 575.509 929.217C651.17 916.179 699.292 883.081 750.236 848.043C800.873 813.214 853.237 777.199 935.096 762.771C1027.78 746.437 1116.2 762.502 1209.82 779.513C1321.07 799.729 1436.11 820.632 1575.63 793.002C1706.32 767.124 1813.16 679.966 1879.77 611.405C1951.98 537.087 1993.79 468.002 1994.21 467.314L1995.3 467.792C1994.89 468.483 1953.02 537.652 1880.73 612.057C1838.27 655.764 1793.77 692.698 1748.48 721.84C1691.84 758.281 1633.78 782.568 1575.91 794.025C1531.28 802.86 1486.1 807.241 1439.05 807.241C1420.16 807.241 1400.97 806.536 1381.38 805.126C1320.97 800.783 1264.34 790.492 1209.56 780.536C1116.08 763.549 1027.78 747.501 935.341 763.793C853.773 778.169 801.528 814.104 751.005 848.853C726.521 865.693 701.206 883.106 673.139 897.516C641.704 913.658 609.844 924.365 575.746 930.24C515.45 940.632 467.268 938.772 420.672 936.974C359.984 934.632 302.662 932.422 226.816 958.209C159.918 981.015 114.361 1020.41 87.9259 1049.44C59.2896 1080.91 46.3091 1107.29 46.1823 1107.55Z" fill="url(#paint3_linear)"/>
<path d="M40.7332 1094.11L39.5836 1093.74C39.7023 1093.48 51.6559 1066.91 79.1141 1035.18C95.2405 1016.56 113.482 999.817 133.331 985.431C158.151 967.446 185.568 953.109 214.822 942.821C289.002 916.821 347.605 918.046 409.639 919.345C457.544 920.347 507.077 921.384 566.571 909.658C639.544 895.275 685.064 862.673 733.259 828.155C783.18 792.401 834.807 755.429 920.033 739.626C1012.46 722.489 1100.56 737.004 1193.84 752.375C1306.2 770.887 1422.39 790.031 1562.86 758.878C1692.44 730.138 1795.8 643.224 1859.69 575.372C1928.94 501.825 1968.03 434.21 1968.42 433.536L1969.52 433.997C1969.14 434.671 1930 502.377 1860.67 576.01C1819.94 619.263 1776.92 656.071 1732.8 685.416C1677.62 722.109 1620.55 747.166 1563.17 759.891C1500.2 773.858 1436.08 778.867 1367.15 775.198C1306.22 771.955 1248.97 762.523 1193.61 753.405C1100.46 738.055 1012.48 723.561 920.303 740.652C835.372 756.4 783.867 793.288 734.057 828.962C710.865 845.572 686.88 862.747 660.171 877.126C630.274 893.219 599.752 904.194 566.857 910.681C507.212 922.438 457.597 921.401 409.619 920.396C347.711 919.101 289.24 917.879 215.296 943.795C149.306 967.003 105.357 1006.65 80.1041 1035.81C52.7441 1067.41 40.8518 1093.85 40.7332 1094.11Z" fill="url(#paint4_linear)"/>
<path d="M35.2841 1080.66L34.1223 1080.32C34.2286 1080.06 45.0941 1053.43 71.2636 1021.56C86.6332 1002.84 104.2 985.997 123.472 971.492C147.567 953.36 174.42 938.859 203.277 928.39C236.172 916.503 268.343 909.294 304.523 905.706C336.457 902.539 366.492 902.662 398.291 902.794C447.685 902.997 498.76 903.206 557.632 890.08C627.95 874.403 670.934 842.29 716.437 808.295C765.528 771.62 816.288 733.698 904.966 716.464C997.081 698.562 1084.83 711.555 1177.73 725.31C1291.25 742.118 1408.63 759.5 1550.07 724.734C1678.56 693.148 1778.45 606.472 1839.61 539.321C1905.9 466.542 1942.25 400.4 1942.61 399.74L1943.72 400.18C1943.36 400.84 1906.96 467.091 1840.58 539.963C1801.59 582.765 1760.04 619.451 1717.09 648.995C1663.37 685.936 1607.29 711.758 1550.41 725.742C1486.99 741.329 1422.36 747.739 1352.83 745.33C1291.34 743.201 1233.48 734.63 1177.52 726.346C1084.74 712.61 997.114 699.634 905.236 717.49C816.861 734.665 766.215 772.5 717.243 809.088C695.319 825.467 672.652 842.402 647.264 856.746C618.865 872.793 589.643 884.031 557.939 891.1C498.907 904.26 447.754 904.051 398.279 903.845C335.262 903.583 275.74 903.339 203.748 929.357C138.682 952.959 96.3409 992.835 72.2823 1022.13C46.215 1053.88 35.3904 1080.4 35.2841 1080.66Z" fill="url(#paint5_linear)"/>
<path d="M29.8351 1067.22L28.6609 1066.91C28.755 1066.65 38.5323 1039.96 63.4173 1007.93C78.0301 989.125 94.9214 972.176 113.617 957.556C136.992 939.278 163.276 924.612 191.737 913.965C223.278 902.215 256.066 894.573 291.989 890.604C324.082 887.057 355.921 886.68 386.718 886.314C437.707 885.706 490.435 885.082 548.706 870.517C616.414 853.594 656.922 821.966 699.807 788.478C747.941 750.894 797.711 712.03 889.916 693.312C981.687 674.684 1069.04 686.18 1161.52 698.353C1276.23 713.451 1394.85 729.066 1537.3 690.599C1664.7 656.197 1761.1 569.762 1819.54 503.312C1882.88 431.295 1916.49 366.598 1916.82 365.952L1917.95 366.374C1917.62 367.02 1883.94 431.829 1820.52 503.941C1783.27 546.299 1743.2 582.856 1701.41 612.599C1649.16 649.787 1594.07 676.367 1537.67 691.598C1473.8 708.846 1408.64 716.68 1338.5 715.546C1276.44 714.54 1217.92 706.839 1161.34 699.39C1068.98 687.234 981.745 675.749 890.206 694.331C798.312 712.987 748.661 751.757 700.642 789.249C679.013 806.138 658.583 822.088 634.484 836.401C607.16 852.626 580.013 863.787 549.053 871.523C490.623 886.125 437.809 886.754 386.738 887.361C322.72 888.122 262.248 888.841 192.236 914.925C128.058 938.936 87.3205 979.071 64.4441 1008.51C39.6573 1040.41 29.9332 1066.95 29.8351 1067.22Z" fill="url(#paint6_linear)"/>
<path d="M24.3859 1053.78L23.2036 1053.5C23.2896 1053.24 31.9745 1026.49 55.5709 994.309C69.4268 975.409 85.6432 958.356 103.762 943.621C126.417 925.196 152.133 910.366 180.196 899.538C210.825 887.77 243.262 879.915 279.356 875.524C311.564 871.607 343.775 870.734 374.928 869.889C427.619 868.462 482.101 866.985 539.771 850.944C604.919 832.826 643.021 801.663 683.366 768.67C730.415 730.19 779.069 690.404 874.861 670.15C966.252 650.828 1053.18 660.864 1145.2 671.487C1261.15 684.871 1381.04 698.712 1524.53 656.455C1650.82 619.259 1743.74 533.079 1799.45 467.332C1859.83 396.068 1890.72 332.788 1891.03 332.156L1892.16 332.554C1891.85 333.186 1860.92 396.56 1800.46 467.922C1764.94 509.837 1726.34 546.271 1685.72 576.209C1634.94 613.646 1580.84 640.976 1524.92 657.443C1460.58 676.395 1394.88 685.677 1324.09 685.828C1261.45 685.964 1202.26 679.128 1145.03 672.52C1053.13 661.911 966.318 651.889 875.156 671.162C779.682 691.347 731.152 731.038 684.217 769.421C663.865 786.066 644.637 801.789 621.785 816.066C595.882 832.25 569.945 843.648 540.155 851.932C482.322 868.018 427.75 869.495 374.973 870.926C312.91 872.609 248.731 874.347 180.708 900.48C117.454 924.885 78.3246 965.254 56.6386 994.822C33.1241 1026.89 24.4718 1053.51 24.3859 1053.78Z" fill="url(#paint7_linear)"/>
<path d="M18.9368 1040.33L17.7422 1040.09C17.8159 1039.82 25.4127 1013.02 47.7204 980.684C60.8195 961.693 76.3609 944.535 93.9027 929.682C115.838 911.113 140.985 896.116 168.652 885.11C198.38 873.331 230.433 865.274 266.645 860.478C298.923 856.201 331.474 854.847 362.954 853.538C417.44 851.272 473.78 848.926 530.828 831.381C593.468 812.115 629.243 781.398 667.121 748.88C712.959 709.527 760.361 668.834 859.79 646.998C950.764 627.02 1037.23 635.625 1128.77 644.736C1181.86 650.021 1235.79 655.387 1292.32 655.387C1360.6 655.387 1432.66 647.567 1511.74 622.324C1636.97 582.353 1726.41 496.4 1779.39 431.337C1836.8 360.824 1864.94 298.989 1865.22 298.375L1866.37 298.752C1866.09 299.37 1837.89 361.323 1780.39 431.937C1746.62 473.413 1709.49 509.725 1670.04 539.859C1620.72 577.536 1567.6 605.613 1512.17 623.309C1477.42 634.399 1443.17 642.46 1407.47 647.951C1375.8 652.821 1343.8 655.526 1309.64 656.218C1246.38 657.502 1186.52 651.543 1128.62 645.78C1037.2 636.682 950.846 628.088 860.097 648.017C760.991 669.783 713.712 710.372 667.988 749.624C648.875 766.031 630.822 781.531 609.181 795.781C584.652 811.933 559.886 823.561 531.241 832.369C474.018 849.97 417.584 852.32 363.011 854.589C300.174 857.203 235.199 859.905 169.167 886.066C106.805 910.876 69.2754 951.507 48.7759 981.221C26.5663 1013.41 19.0104 1040.06 18.9368 1040.33Z" fill="url(#paint8_linear)"/>
<path d="M13.4878 1026.89L12.285 1026.68C12.3464 1026.41 18.855 999.549 39.8741 967.066C52.2205 947.988 67.0828 930.722 84.0478 915.753C105.259 897.038 129.841 881.874 157.111 870.689C221.384 844.43 287.194 840.782 350.836 837.26C407.205 834.139 465.492 830.91 521.894 811.818C582.083 791.445 615.612 761.158 651.105 729.09C695.602 688.889 741.616 647.319 844.732 623.85C935.251 603.25 1021.23 610.459 1112.25 618.093C1230.78 628.032 1353.34 638.309 1498.96 588.194C1623.12 545.465 1709.07 459.756 1759.32 395.38C1813.77 325.615 1839.17 265.197 1839.42 264.594L1840.58 264.943C1840.33 265.547 1814.88 326.086 1760.34 395.96C1728.31 436.999 1692.66 473.189 1654.38 503.515C1606.51 541.433 1554.38 570.251 1499.42 589.164C1464.41 601.211 1429.9 610.127 1393.9 616.418C1361.95 622 1329.66 625.358 1295.17 626.678C1283.74 627.114 1272.41 627.313 1261.19 627.313C1209.67 627.313 1160.24 623.166 1112.14 619.134C1021.23 611.51 935.358 604.308 845.055 624.862C742.275 648.255 696.383 689.713 652.001 729.81C634.095 745.986 617.179 761.27 596.708 775.495C573.5 791.623 549.871 803.475 522.348 812.792C465.762 831.943 407.377 835.176 350.914 838.303C287.386 841.822 221.699 845.46 157.639 871.635C96.1814 896.846 60.2591 937.721 40.946 967.575C20.021 999.915 13.5491 1026.62 13.4878 1026.89Z" fill="url(#paint9_linear)"/>
<path d="M8.0386 1013.44L6.8277 1013.27C6.88089 1013 12.2972 986.081 32.0277 953.441C43.6172 934.272 57.8004 916.901 74.1927 901.814C94.6841 882.952 118.698 867.624 145.567 856.257C207.888 829.995 274.336 825.443 338.592 821.037C396.92 817.04 457.237 812.907 512.955 792.244C570.764 770.81 602.12 740.917 635.318 709.269C678.346 668.247 722.839 625.829 829.673 600.684C919.71 579.494 1005.17 585.345 1095.66 591.538C1139.47 594.537 1183.84 597.574 1229.65 597.574C1309.18 597.574 1393.09 588.428 1486.18 554.042C1609.27 508.58 1691.75 423.109 1739.26 359.417C1790.75 290.395 1813.4 231.381 1813.63 230.794L1814.79 231.116C1814.57 231.706 1791.87 290.845 1740.3 359.979C1710.01 400.585 1675.83 436.65 1638.71 467.171C1592.31 505.33 1541.15 534.88 1486.67 555.002C1451.39 568.03 1416.6 577.819 1380.29 584.926C1348.07 591.234 1315.47 595.252 1280.65 597.211C1216.15 600.834 1154.84 596.638 1095.56 592.578C1005.19 586.392 919.828 580.545 830 601.69C723.514 626.754 679.144 669.054 636.23 709.96C620.227 725.215 603.679 740.991 584.341 755.206C562.41 771.323 539.881 783.398 513.446 793.197C457.539 813.926 397.121 818.07 338.69 822.074C274.545 826.469 208.219 831.014 146.111 857.189C85.5818 882.802 51.2631 923.911 33.1363 953.887C13.4836 986.384 8.08771 1013.17 8.0386 1013.44Z" fill="url(#paint10_linear)"/>
<path d="M2.58545 999.992L1.37045 999.856C1.41138 999.587 5.73953 972.609 24.1814 939.816C35.0141 920.556 48.5223 903.081 64.3377 887.878C84.1091 868.87 107.554 853.377 134.026 841.833C194.433 815.574 261.45 810.142 326.262 804.888C386.62 799.998 449.035 794.939 504.025 772.681C559.522 750.221 588.788 720.691 619.773 689.43C661.206 647.623 704.054 604.395 814.619 577.533C904.14 555.784 989.067 560.315 1078.98 565.112C1200.22 571.581 1325.6 578.269 1473.41 519.915C1595.44 471.74 1674.43 386.521 1719.2 323.517C1767.73 255.227 1787.64 197.592 1787.83 197.016L1789.01 197.31C1788.82 197.886 1768.87 255.629 1720.27 324.033C1691.72 364.21 1659.02 400.152 1623.07 430.865C1578.12 469.262 1527.94 499.542 1473.93 520.868C1438.38 534.898 1403.31 545.577 1366.69 553.515C1334.18 560.563 1301.29 565.252 1266.12 567.852C1200.96 572.67 1138.91 569.36 1078.9 566.159C989.096 561.37 904.271 556.842 814.954 578.541C704.745 605.317 662.024 648.422 620.71 690.107C605.786 705.164 590.351 720.737 572.097 734.945C551.671 750.846 529.576 763.497 504.548 773.627C479.778 783.653 451.436 791.065 417.903 796.283C387.986 800.94 356.666 803.478 326.373 805.932C261.675 811.176 194.776 816.597 134.579 842.765C74.9536 868.772 42.2427 910.125 25.3023 940.238C6.93817 972.885 2.62637 999.727 2.58545 999.992Z" fill="url(#paint11_linear)"/>
<path d="M-2.86774 986.548L-4.09091 986.447C-4.0582 986.178 -0.822266 959.141 16.3309 926.197C26.4068 906.847 39.24 889.267 54.4786 873.945C73.53 854.791 96.4105 839.131 122.482 827.408C181.019 801.157 248.547 794.876 313.859 788.806C376.306 783 440.877 776.996 495.086 753.122C548.349 729.666 575.603 700.465 604.46 669.549C644.179 626.999 685.252 582.996 799.556 554.381C888.533 532.105 972.904 535.352 1062.23 538.79C1184.89 543.51 1311.72 548.394 1460.63 485.781C1581.63 434.904 1657.13 349.925 1699.16 287.595C1744.72 220.039 1761.86 163.793 1762.03 163.235L1763.22 163.493C1763.05 164.055 1745.87 220.416 1700.24 288.087C1673.44 327.835 1642.22 363.658 1607.43 394.56C1563.94 433.194 1514.73 464.2 1461.17 486.72C1311.98 549.452 1184.99 544.564 1062.18 539.838C972.957 536.403 888.684 533.16 799.904 555.386C685.972 583.907 645.022 627.777 605.422 670.202C591.537 685.077 577.178 700.458 559.972 714.676C540.708 730.595 519.668 743.473 495.65 754.05C471.224 764.809 442.673 772.873 408.367 778.71C377.759 783.918 345.342 786.931 313.99 789.846C248.797 795.91 181.379 802.176 123.05 828.333C64.3295 854.739 33.2263 896.34 17.4682 926.588C0.388611 959.382 -2.83502 986.279 -2.86774 986.548Z" fill="url(#paint12_linear)"/>
<path d="M-8.32095 973.101L-9.54413 973.035C-9.52368 972.766 -7.37595 945.673 8.4845 912.572C17.8036 893.131 29.9618 875.447 44.6195 860.01C62.9468 840.709 85.2627 824.884 110.937 812.98C167.65 786.736 235.649 779.639 301.41 772.776C365.993 766.035 432.773 759.063 486.147 733.555C537.275 709.119 562.619 680.232 589.451 649.648C608.314 628.147 627.82 605.917 657.074 585.565C689.952 562.689 731.635 544.917 784.497 531.226C824.723 520.92 866.254 515.031 915.19 512.692C958.373 510.629 1000.5 511.628 1045.09 512.685C1070.71 513.293 1096.54 513.907 1122.67 513.907C1223.21 513.907 1328.68 504.852 1447.85 451.647C1567.83 398.086 1639.85 313.344 1679.13 251.688C1721.71 184.865 1736.1 130.001 1736.24 129.453L1737.43 129.677C1737.29 130.225 1722.89 185.207 1680.23 252.155C1655.18 291.477 1625.43 327.179 1591.81 358.269C1549.77 397.136 1501.53 428.865 1448.43 452.572C1297.99 519.734 1169.41 516.682 1045.06 513.729C956.573 511.628 872.996 509.645 784.857 532.224C667.301 562.665 628.229 607.202 590.441 650.273C577.546 664.973 564.21 680.172 547.998 694.401C529.834 710.344 509.801 723.449 486.753 734.466C462.694 745.965 433.939 754.696 398.835 761.161C367.515 766.928 333.986 770.43 301.561 773.812C235.915 780.665 168.034 787.748 111.526 813.898C53.6972 840.712 24.1936 882.572 9.62589 912.967C-6.16504 945.911 -8.30051 972.833 -8.32095 973.101Z" fill="url(#paint13_linear)"/>
<path d="M-13.774 959.654L-15.0013 959.626C-14.9931 959.358 -13.9377 932.205 0.638245 898.954C9.20053 879.423 20.6796 861.633 34.7646 846.078C52.3719 826.63 74.1151 810.641 99.3969 798.556C154.387 772.294 222.856 764.383 289.072 756.735C355.762 749.03 424.722 741.064 477.213 713.992C526.156 688.582 550.718 658.626 574.47 629.655C592.421 607.764 610.982 585.125 639.961 564.312C655.568 553.103 672.836 543.332 692.755 534.437C715.111 524.453 740.197 515.827 769.439 508.067C809.391 497.524 850.656 491.255 899.305 488.333C942.218 485.756 984.036 486.172 1028.31 486.608C1154 487.854 1283.96 489.139 1435.08 417.506C1554.14 361.389 1622.67 276.864 1659.2 215.839C1698.77 149.718 1710.33 96.199 1710.44 95.6683L1711.64 95.8533C1711.53 96.3875 1699.94 150.057 1660.29 216.318C1637 255.231 1608.73 290.817 1576.26 322.085C1535.67 361.173 1488.37 393.586 1435.67 418.424C1284.27 490.193 1154.14 488.902 1028.29 487.656C940.381 486.786 857.348 485.962 769.803 509.065C648.434 541.272 611.346 586.508 575.476 630.252C551.651 659.311 527.016 689.357 477.851 714.882C454.185 727.086 425.238 736.47 389.348 743.571C357.333 749.903 322.716 753.904 289.236 757.768C223.135 765.403 154.78 773.299 99.9941 799.463C43.0896 826.668 15.1896 868.761 1.80414 899.279C-12.7063 932.38 -13.7659 959.385 -13.774 959.654Z" fill="url(#paint14_linear)"/>
<path d="M-20.4545 946.214C-20.4545 945.942 -20.4913 918.734 -7.20407 885.333C0.601379 865.711 11.4055 847.816 24.9096 832.146C41.7968 812.551 62.9714 796.395 87.8523 784.132C141.083 757.89 209.905 749.244 276.46 740.879C345.42 732.215 416.729 723.254 468.274 694.429C515.311 668.125 538.016 638.337 559.968 609.527C576.933 587.262 594.479 564.243 623.107 542.997C638.517 531.561 655.814 521.542 675.986 512.364C698.613 502.07 724.255 493.091 754.376 484.912C793.538 474.278 835.765 467.426 883.473 463.959C926.129 460.859 969.586 460.667 1011.62 460.482C1138.71 459.917 1270.12 459.334 1422.3 383.375C1540.28 324.483 1605.32 240.216 1639.11 179.897C1675.73 114.526 1684.55 62.4105 1684.64 61.8903L1685.85 62.0334C1685.77 62.5536 1676.93 114.799 1640.23 180.309C1618.69 218.782 1591.89 254.246 1560.59 285.71C1521.46 325.042 1475.14 358.206 1422.92 384.272C1270.46 460.374 1138.88 460.957 1011.62 461.523C924.271 461.91 841.77 462.277 754.744 485.903C629.771 519.835 594.806 565.719 560.991 610.089C538.965 638.99 516.191 668.872 468.941 695.295C445.701 708.292 416.536 718.38 379.792 726.141C347.02 733.06 311.236 737.556 276.631 741.906C210.191 750.256 141.484 758.889 88.4578 785.029C32.4573 812.635 6.16092 854.973 -6.03818 885.626C-19.26 918.877 -19.2273 945.939 -19.2273 946.208L-20.4545 946.214Z" fill="url(#paint15_linear)"/>
<path d="M-28.5013 938.656L-29.7286 938.635C-29.7204 938.363 -28.9022 911.015 -15.1977 877.468C-7.14676 857.762 3.71051 839.797 17.0714 824.071C33.7787 804.41 54.4705 788.216 78.57 775.938C129.461 750.015 196.31 740.533 260.959 731.366C330.153 721.553 401.703 711.409 453.248 681.027C498.817 654.168 520.302 623.577 541.08 593.992C557.194 571.05 573.856 547.326 601.638 525.141C616.602 513.192 633.477 502.663 653.22 492.951C675.389 482.049 700.568 472.459 730.199 463.627C769.496 451.961 810.278 444.529 858.543 440.245C901.121 436.465 942.746 435.707 986.813 434.904C1113.07 432.604 1243.64 430.223 1393.06 352.425C1509.44 291.833 1571.41 204.822 1602.9 142.499C1637.03 74.9708 1643.7 21.0991 1643.77 20.5649L1644.99 20.6697C1644.92 21.2073 1638.22 75.2396 1604.03 142.914C1583.95 182.662 1558.45 219.274 1528.24 251.74C1490.48 292.325 1445.21 326.501 1393.7 353.318C1244 431.263 1113.27 433.648 986.842 435.952C899.354 437.547 816.717 439.052 730.604 464.619C607.635 501.263 574.335 548.68 542.135 594.533C521.292 624.213 499.737 654.901 453.948 681.89C430.715 695.584 401.474 706.364 364.553 714.847C331.658 722.405 295.822 727.488 261.164 732.403C196.63 741.553 129.899 751.017 79.2041 776.839C24.9587 804.469 -1.43585 846.982 -14.0236 877.778C-27.675 911.176 -28.4931 938.388 -28.5013 938.656Z" fill="url(#paint16_linear)"/>
<path d="M-37.7714 931.109L-38.9987 931.06C-38.9823 930.788 -37.3132 903.297 -23.1832 869.606C-14.8828 849.817 -3.97641 831.782 9.2413 816.004C25.7686 796.273 45.9736 780.04 69.2918 767.756C91.1045 756.26 118.055 746.87 151.679 739.039C181.657 732.061 214.135 726.922 245.54 721.955C314.939 710.976 386.701 699.627 438.222 667.633C482.306 640.257 501.664 610.277 522.155 578.538C552.845 531.006 584.583 481.857 706.013 442.351C744.897 429.783 785.438 421.573 833.6 416.507C876.101 412.039 917.832 410.699 962.01 409.281C1087.44 405.253 1217.13 401.088 1363.81 321.478C1478.59 259.197 1537.48 169.456 1566.67 105.139C1598.31 35.4467 1602.85 -20.2089 1602.89 -20.7604L1604.11 -20.6941C1604.07 -20.139 1599.52 35.6771 1567.82 105.516C1549.2 146.534 1525 184.303 1495.89 217.766C1459.49 259.602 1415.28 294.793 1364.47 322.361C1217.51 402.125 1087.64 406.293 962.055 410.325C874.415 413.139 791.64 415.795 706.451 443.328C585.442 482.695 553.815 531.676 523.231 579.041C513.376 594.303 503.186 610.085 490.169 625.11C475.584 641.94 458.832 656.127 438.942 668.478C387.2 700.608 315.299 711.981 245.765 722.981C183.121 732.892 118.342 743.138 69.9381 768.642C17.4395 796.304 -9.04913 839.005 -22.0296 869.956C-36.0941 903.503 -37.7592 930.837 -37.7714 931.109Z" fill="url(#paint17_linear)"/>
<path d="M-47.0454 923.559L-48.2686 923.482C-48.2441 923.206 -45.72 895.575 -31.1727 861.741C-22.6268 841.864 -11.6632 823.76 1.41138 807.933C17.7628 788.136 37.4769 771.865 60.0137 759.566C80.8282 748.207 106.72 738.76 139.173 730.682C168.132 723.474 199.698 717.958 230.224 712.624C299.794 700.465 371.737 687.891 423.196 654.235C465.783 626.384 483.963 595.671 503.21 563.157C532.268 514.075 562.312 463.32 681.832 421.073C766.276 391.484 849.305 387.658 937.207 383.609C1061.79 377.87 1190.61 371.932 1334.57 290.534C1447.72 226.57 1503.54 134.114 1530.43 67.8144C1559.59 -4.04596 1562 -61.5133 1562.02 -62.0858L1563.25 -62.0544C1563.23 -61.4819 1560.81 -3.8819 1531.61 68.1216C1514.45 110.414 1491.55 149.331 1463.54 183.796C1428.51 226.881 1385.35 263.089 1335.25 291.407C1300.64 310.981 1266.1 326.739 1229.65 339.582C1197.3 350.983 1164.27 359.78 1128.67 366.476C1062.71 378.875 998.943 381.815 937.276 384.656C849.481 388.702 766.555 392.521 682.302 422.044C563.204 464.144 533.262 514.721 504.307 563.632C495.033 579.295 485.444 595.493 473.077 610.85C459.237 628.036 443.164 642.502 423.941 655.073C372.256 688.875 300.175 701.474 230.465 713.657C166.889 724.769 106.838 735.266 60.6723 760.456C9.94095 788.139 -16.6418 831 -30.0109 862.08C-44.505 895.774 -47.025 923.286 -47.0454 923.559Z" fill="url(#paint18_linear)"/>
<path d="M-56.3195 916.007L-57.5427 915.903C-57.51 915.627 -54.135 887.857 -39.1664 853.873C-30.375 833.912 -19.3582 815.738 -6.42682 799.854C9.74454 779.991 28.9759 763.682 50.7273 751.373C94.8927 726.385 153.237 715.207 215.006 703.369C284.715 690.013 356.797 676.199 408.162 640.83C449.239 612.546 466.241 581.118 484.245 547.842C511.654 497.179 539.996 444.791 657.646 399.782C741.138 368.169 824.326 363.166 912.4 357.87C1036.13 350.431 1164.07 342.737 1305.32 259.573C1416.88 193.909 1469.62 98.7054 1494.22 30.4023C1520.87 -43.6154 1521.14 -102.842 1521.14 -103.432H1522.37C1522.37 -102.842 1522.1 -43.4548 1495.39 30.7095C1479.7 74.2726 1458.1 114.341 1431.18 149.805C1397.52 194.143 1355.41 231.363 1306.02 260.436C1272.06 280.432 1238.07 296.622 1202.11 309.937C1170.2 321.754 1137.54 330.984 1102.28 338.15C1036.96 351.426 973.681 355.231 912.485 358.911C824.523 364.199 741.441 369.195 658.146 400.732C540.916 445.576 512.673 497.786 485.358 548.275C467.296 581.662 450.233 613.199 408.931 641.64C357.341 677.163 285.116 691.001 215.272 704.385C153.618 716.198 95.3795 727.359 51.4023 752.239C2.43411 779.96 -24.2468 822.996 -38.0045 854.218C-52.9241 888.077 -56.2909 915.732 -56.3195 916.007Z" fill="url(#paint19_linear)"/>
<path d="M-65.5978 908.457L-66.8169 908.328C-66.7759 908.048 -62.5459 880.138 -47.1559 846.011C-38.1151 825.963 -27.0491 807.72 -14.261 791.787C1.73041 771.858 20.4749 755.51 41.4449 743.19C83.4709 718.502 140.032 706.7 199.914 694.202C269.718 679.635 341.902 664.571 393.132 627.438C432.679 598.775 448.47 566.616 465.189 532.57C477.875 506.74 490.991 480.031 515.385 453.937C542.929 424.477 581.551 399.803 633.461 378.509C716.04 344.633 799.548 338.454 887.96 331.912C1010.74 322.829 1137.69 313.435 1276.07 228.637C1386.02 161.283 1435.69 63.3495 1457.99 -6.95044C1482.16 -83.1326 1480.29 -144.143 1480.27 -144.751L1481.5 -144.782C1481.52 -144.175 1483.39 -83.0034 1459.18 -6.67462C1444.95 38.1591 1424.65 79.3798 1398.82 115.842C1366.53 161.43 1325.47 199.666 1276.79 229.489C1243.52 249.876 1210.12 266.475 1174.68 280.233C1143.24 292.444 1110.99 302.082 1076.1 309.706C1011.48 323.824 948.743 328.467 888.067 332.956C799.769 339.491 716.371 345.659 633.993 379.455C518.433 426.861 491.94 480.806 466.323 532.978C449.546 567.144 433.698 599.41 393.93 628.238C342.479 665.531 270.155 680.626 200.209 695.222C140.441 707.695 83.9863 719.476 42.1445 744.052C-5.08096 771.791 -31.86 815.016 -46.0064 846.388C-61.3473 880.397 -65.5569 908.181 -65.5978 908.457Z" fill="url(#paint20_linear)"/>
<path d="M-74.8718 900.906L-76.0868 900.749C-76.0377 900.47 -70.9568 872.417 -55.1454 838.146C-45.859 818.014 -34.74 799.701 -22.095 783.716C-6.27951 763.724 11.9742 747.334 32.1628 735.004C72.1064 710.613 126.925 698.224 184.962 685.105C254.823 669.316 327.06 652.989 378.102 614.044C416.135 585.024 430.744 552.189 446.208 517.426C458.031 490.85 470.254 463.369 493.793 436.259C520.405 405.612 558.18 379.762 609.271 357.232C690.848 321.261 774.536 313.882 863.137 306.069C985.054 295.317 1111.12 284.202 1246.82 197.69C1355.16 128.654 1401.75 28.0006 1421.75 -44.2822C1443.44 -122.632 1439.43 -185.458 1439.39 -186.083L1440.62 -186.146C1440.66 -185.521 1444.68 -122.566 1422.96 -44.0727C1410.2 2.03174 1391.19 44.4044 1366.46 81.8654C1335.54 128.703 1295.54 167.955 1247.56 198.528C1214.94 219.323 1182.09 236.345 1147.14 250.567C1116.13 263.183 1084.25 273.247 1049.71 281.336C985.733 296.312 923.478 301.803 863.272 307.109C774.79 314.911 691.216 322.281 609.844 358.16C496.056 408.332 471.301 463.98 447.361 517.796C431.841 552.681 417.183 585.631 378.925 614.823C327.661 653.935 255.281 670.297 185.281 686.117C127.354 699.208 72.6423 711.577 32.8787 735.856C-12.5795 763.616 -39.4527 807.001 -53.9918 838.51C-69.7581 872.675 -74.8227 900.63 -74.8718 900.906Z" fill="url(#paint21_linear)"/>
<path d="M-84.1459 893.355L-85.3527 893.174C-85.2954 892.894 -79.3636 864.702 -63.1309 830.285C-53.595 810.069 -42.4227 791.686 -29.925 775.649C-14.2895 755.59 3.47729 739.162 22.8846 726.821C60.7991 702.713 113.924 689.772 170.165 676.071C240.034 659.049 312.284 641.451 363.08 600.649C399.608 571.312 413.035 537.82 427.246 502.363C438.202 475.029 449.534 446.767 472.21 418.626C497.88 386.772 534.805 359.728 585.098 335.955C665.644 297.876 749.508 289.285 838.293 280.184C959.351 267.781 1084.53 254.952 1217.59 166.743C1324.33 96.007 1367.84 -7.39026 1385.54 -81.6768C1404.73 -162.184 1398.59 -226.773 1398.53 -227.415L1399.75 -227.506C1399.77 -227.346 1401.35 -211.081 1400.54 -185.071C1399.79 -161.071 1396.79 -123.613 1386.74 -81.4674C1375.45 -34.0923 1357.74 9.43243 1334.11 47.8918C1304.55 95.9791 1265.6 136.247 1218.34 167.571C1186.36 188.774 1154.05 206.215 1119.58 220.891C1089 233.908 1057.5 244.392 1023.29 252.941C959.96 268.769 898.184 275.098 838.44 281.221C749.778 290.308 666.029 298.888 585.691 336.866C473.65 389.833 450.65 447.21 428.404 502.698C414.139 538.281 400.668 571.891 363.919 601.407C312.901 642.383 240.509 660.019 170.497 677.072C114.365 690.746 61.3473 703.663 23.6127 727.656C-20.0905 755.443 -47.0618 799.003 -61.9895 830.651C-78.1732 864.974 -84.0886 893.076 -84.1459 893.355Z" fill="url(#paint22_linear)"/>
<path d="M-93.42 885.804L-94.6228 885.598C-94.5573 885.315 -87.7746 856.983 -71.1205 822.42C-61.3391 802.116 -50.1137 783.664 -37.7591 767.574C-22.3037 747.449 -5.02368 730.982 13.6022 718.631C49.545 694.799 101.021 681.338 155.52 667.088C225.352 648.827 297.56 629.948 348.055 587.248C383.085 557.624 395.333 523.504 408.297 487.376C418.381 459.278 428.809 430.223 450.618 401.036C475.335 367.956 511.413 339.704 560.917 314.671C640.411 274.469 724.443 264.649 813.412 254.253C933.611 240.209 1057.91 225.684 1188.34 135.796C1293.47 63.3704 1333.91 -42.7602 1349.31 -119.044C1366.02 -201.715 1357.74 -268.088 1357.65 -268.751L1358.87 -268.866C1358.89 -268.702 1361.02 -251.991 1361.04 -225.272C1361.07 -200.616 1359.26 -162.142 1350.52 -118.869C1340.69 -70.2231 1324.28 -25.55 1301.74 13.9113C1273.56 63.2518 1235.66 104.532 1189.1 136.606C1157.75 158.211 1125.98 176.071 1091.99 191.201C1061.84 204.616 1030.72 215.518 996.848 224.525C934.155 241.197 872.849 248.361 813.567 255.29C724.729 265.672 640.812 275.478 561.535 315.571C451.211 371.363 429.987 430.495 409.463 487.683C396.45 523.94 384.161 558.182 348.91 587.991C326.213 607.184 296.873 623.337 259.212 637.367C225.929 649.77 190.313 659.08 155.872 668.087C101.483 682.308 50.1136 695.742 14.3468 719.455C-27.6014 747.271 -54.6668 791.005 -69.9873 822.797C-86.5923 857.273 -93.3546 885.525 -93.42 885.804Z" fill="url(#paint23_linear)"/>
<path d="M-102.698 878.253L-103.897 878.023C-103.823 877.74 -96.1895 849.265 -79.1182 814.558C-69.0872 794.171 -57.8127 775.648 -45.5972 759.506C-30.3218 739.315 -13.5286 722.81 4.31592 710.449C38.3441 686.875 88.2287 672.928 141.038 658.158C210.784 638.655 282.907 618.488 333.021 573.853C366.566 543.978 377.64 509.247 389.369 472.477C398.577 443.604 408.097 413.746 429.026 383.501C452.778 349.178 488.005 319.704 536.727 293.397C615.142 251.056 699.341 240 788.482 228.292C907.834 212.617 1031.25 196.409 1159.09 104.853C1262.61 30.741 1299.97 -78.1091 1313.09 -156.375C1327.3 -241.215 1316.89 -309.399 1316.78 -310.08L1318 -310.22C1318.03 -310.049 1320.68 -292.891 1321.55 -265.463C1322.35 -240.154 1321.74 -200.661 1314.31 -156.257C1305.95 -106.34 1290.83 -60.5149 1269.39 -20.0552C1242.58 30.535 1205.73 72.8309 1159.88 105.656C1129.15 127.663 1097.92 145.93 1064.4 161.51C1034.67 175.324 1003.93 186.638 970.396 196.098C908.337 213.612 847.501 221.599 788.67 229.328C699.66 241.019 615.584 252.061 537.386 294.284C428.764 352.934 408.465 416.591 390.555 472.756C378.79 509.659 367.675 544.515 333.912 574.583C311.396 594.638 282.138 611.621 244.469 626.503C211.218 639.639 175.737 649.56 141.423 659.157C88.7237 673.896 38.9455 687.814 5.0932 711.266C-35.1041 739.113 -62.2677 783.028 -77.9809 814.967C-95.0113 849.586 -102.62 877.971 -102.698 878.253Z" fill="url(#paint24_linear)"/>
<path d="M-111.972 870.702L-113.163 870.448C-113.081 870.161 -104.596 841.546 -87.1036 806.693C-76.8272 786.219 -65.4995 767.626 -53.4272 751.432C-38.3318 731.174 -22.0254 714.631 -4.96634 702.259C27.2046 678.933 75.551 664.519 126.736 649.264C193.107 629.481 268.331 607.055 317.995 560.455C350.076 530.356 359.984 495.039 370.477 457.651C378.798 427.992 387.405 397.325 407.446 366.008C430.216 330.421 464.592 299.712 512.542 272.116C589.856 227.625 674.215 215.316 763.523 202.284C882.029 184.994 1004.57 167.113 1129.84 73.9025C1231.76 -1.89911 1266.05 -113.486 1276.87 -193.745C1283 -239.208 1282.41 -279.657 1280.84 -305.58C1279.14 -333.675 1275.94 -351.241 1275.91 -351.416L1277.12 -351.58C1277.16 -351.405 1280.36 -333.801 1282.06 -305.664C1283.64 -279.699 1284.23 -239.19 1278.09 -193.655C1271.19 -142.468 1257.38 -95.4904 1237.03 -54.0323C1211.58 -2.19238 1175.8 41.1158 1130.65 74.6914C1100.54 97.0926 1069.84 115.772 1036.79 131.799C1007.49 146.004 977.114 157.73 943.92 167.644C882.491 185.992 822.121 194.8 763.74 203.317C674.562 216.328 590.335 228.62 513.237 272.986C406.301 334.527 387.904 400.068 371.676 457.899C361.146 495.423 351.201 530.866 318.907 561.163C296.603 582.091 267.46 599.92 229.811 615.664C196.625 629.543 161.305 640.072 127.146 650.255C76.0705 665.479 27.8264 679.861 -4.16861 703.062C-42.6068 730.933 -69.8686 775.027 -85.9745 807.109C-103.43 841.881 -111.89 870.416 -111.972 870.702Z" fill="url(#paint25_linear)"/>
<path d="M-121.251 863.148L-122.433 862.872C-122.339 862.586 -113.007 833.828 -95.0933 798.832C-84.5714 778.274 -73.1864 759.611 -61.2614 743.365C-46.3419 723.041 -30.5265 706.462 -14.2487 694.08C16.1181 670.984 62.9918 656.13 112.615 640.407C178.81 619.43 253.837 595.657 302.969 547.064C333.614 516.756 342.401 480.897 351.708 442.934C359.161 412.517 366.873 381.064 386.01 348.661C407.782 311.801 441.262 279.803 488.365 250.839C564.57 204.365 648.961 190.789 738.311 176.417C856.027 157.482 977.748 137.898 1100.6 42.9557C1200.91 -34.539 1232.12 -148.859 1240.65 -231.116C1245.47 -277.709 1243.69 -319.174 1241.35 -345.757C1238.81 -374.561 1235.07 -392.577 1235.04 -392.755L1236.24 -392.94C1236.28 -392.762 1240.02 -374.711 1242.56 -345.862C1244.91 -319.24 1246.7 -277.716 1241.87 -231.049C1236.43 -178.591 1223.92 -130.466 1204.66 -88.0093C1180.59 -34.9196 1145.85 9.40454 1101.42 43.7307C1071.89 66.5472 1041.69 85.653 1009.08 102.141C980.182 116.753 950.155 128.898 917.28 139.277C856.448 158.477 796.504 168.119 738.532 177.446C649.321 191.798 565.057 205.353 489.076 251.691C383.993 316.311 367.478 383.696 352.906 443.147C343.571 481.246 334.751 517.231 303.897 547.745C281.843 569.559 252.843 588.239 215.251 604.856C182.156 619.483 147.019 630.619 113.04 641.385C63.5277 657.073 16.7563 671.895 -13.4346 694.859C-50.1178 722.758 -77.4778 767.026 -93.9683 799.247C-111.846 834.181 -121.156 862.866 -121.251 863.148Z" fill="url(#paint26_linear)"/>
<path d="M-130.525 855.597L-131.699 855.297C-131.596 855.011 -121.414 826.11 -103.079 790.967C-92.3072 770.322 -80.8731 751.589 -69.0913 735.294C-54.3518 714.907 -39.0231 698.287 -23.5309 685.897C5.08505 663.015 50.5474 647.742 98.681 631.568C164.655 609.401 239.433 584.277 287.947 533.669C317.164 503.19 324.802 466.791 332.89 428.254C345.764 366.898 360.36 297.359 464.183 229.566C539.243 180.878 623.811 166.028 713.336 150.308C830.197 129.789 951.034 108.571 1071.36 12.0123C1170.06 -67.172 1198.2 -184.226 1204.42 -268.479C1207.95 -316.203 1204.97 -358.687 1201.85 -385.923C1198.47 -415.439 1194.21 -433.903 1194.17 -434.084L1195.37 -434.29C1195.41 -434.105 1199.69 -415.607 1203.07 -386.049C1206.19 -358.775 1209.17 -316.231 1205.65 -268.437C1201.68 -214.708 1190.46 -165.434 1172.31 -121.979C1149.6 -67.6398 1115.92 -22.2999 1072.2 12.7768C1043.28 35.9809 1013.6 55.4881 981.466 72.4085C952.985 87.4055 923.327 99.9553 890.787 110.774C830.59 130.79 771.104 141.235 713.582 151.334C624.195 167.03 539.763 181.855 464.924 230.4C361.477 297.946 346.93 367.275 334.092 428.439C325.976 467.115 318.31 503.644 288.892 534.333C267.124 557.041 238.308 576.583 200.798 594.079C167.821 609.46 132.897 621.193 99.1228 632.542C51.1037 648.677 5.74368 663.915 -22.7004 686.662C-57.6245 714.589 -85.0827 759.032 -101.966 791.396C-120.265 826.476 -130.426 855.311 -130.525 855.597Z" fill="url(#paint27_linear)"/>
<path d="M-139.803 848.043L-140.969 847.722C-140.858 847.432 -129.825 818.391 -111.072 783.102C-93.7554 750.514 -66.1213 705.778 -32.8172 677.711C-5.90314 655.024 38.2173 639.342 84.9273 622.74C150.635 599.382 225.115 572.91 272.917 520.271C300.731 489.645 307.227 452.725 314.108 413.641C325.215 350.55 337.803 279.042 439.998 208.285C513.892 157.363 598.623 141.228 688.324 124.147C804.33 102.057 924.288 79.2156 1042.11 -18.9382C1139.21 -99.8156 1164.27 -219.603 1168.2 -305.853C1170.43 -354.708 1166.25 -398.212 1162.36 -426.104C1158.14 -456.328 1153.34 -475.242 1153.29 -475.43L1154.49 -475.654C1154.54 -475.465 1159.35 -456.52 1163.58 -426.254C1167.48 -398.323 1171.65 -354.764 1169.43 -305.839C1166.92 -250.839 1157.01 -200.413 1139.94 -155.96C1118.61 -100.371 1085.98 -54.0184 1042.97 -18.1912C1014.65 5.39685 985.492 25.2985 953.824 42.6519C925.761 58.0293 896.466 70.9771 864.27 82.2318C804.702 103.059 745.675 114.296 688.594 125.166C599.032 142.22 514.44 158.327 440.771 209.095C338.948 279.594 326.397 350.889 315.323 413.791C308.418 453.015 301.897 490.064 273.886 520.906C225.884 573.766 151.249 600.293 85.3978 623.7C38.8023 640.26 -5.21179 655.907 -31.9582 678.448C-65.1273 706.403 -92.6836 751.02 -109.955 783.524C-128.68 818.772 -139.692 847.757 -139.803 848.043Z" fill="url(#paint28_linear)"/>
<path d="M-149.081 840.492L-150.243 840.15C-150.124 839.86 -138.24 810.676 -119.066 775.24C-101.361 742.52 -73.6364 697.62 -42.1078 669.532C-16.8423 647.023 26.0017 630.947 71.3576 613.925C136.759 589.381 210.882 561.565 257.887 506.88C284.322 476.125 289.694 438.713 295.38 399.102C304.691 334.258 315.241 260.76 415.816 187.012C488.516 133.835 573.406 116.404 663.284 97.955C778.443 74.311 897.525 49.8608 1012.87 -49.878C1108.37 -132.452 1130.35 -254.986 1131.98 -343.24C1132.9 -393.226 1127.54 -437.749 1122.87 -466.295C1117.82 -497.221 1112.48 -516.567 1112.43 -516.759L1113.62 -517C1113.68 -516.808 1119.03 -497.413 1124.09 -466.438C1128.76 -437.854 1134.14 -393.275 1133.21 -343.219C1132.18 -286.949 1123.56 -235.374 1107.59 -189.923C1087.62 -133.084 1056.05 -85.7157 1013.74 -49.1379C986.028 -25.1694 957.383 -4.87323 926.178 12.9059C898.527 28.6604 869.596 42.0027 837.736 53.6938C778.794 75.3199 720.221 87.3461 663.574 98.9778C573.844 117.399 489.093 134.802 416.622 187.811C316.411 261.295 305.889 334.576 296.607 399.231C293.69 419.552 290.933 438.748 285.562 456.88C279.523 477.267 271.047 493.353 258.885 507.501C211.688 562.41 137.405 590.288 71.8608 614.885C26.6154 631.862 -16.1183 647.899 -41.216 670.255C-72.626 698.238 -100.281 743.03 -117.949 775.677C-137.099 811.067 -148.962 840.202 -149.081 840.492Z" fill="url(#paint29_linear)"/>
<path d="M-158.355 832.938L-159.505 832.575C-159.378 832.282 -146.647 802.958 -127.047 767.375C-108.953 734.522 -81.139 689.458 -51.3818 661.349C-27.72 638.997 11.9987 623.288 57.9928 605.1C123.042 579.376 196.769 550.216 242.869 493.485C267.955 462.619 272.209 424.732 276.717 384.621C280.501 350.938 284.416 316.109 299.847 279.231C317.479 237.099 347.506 199.973 391.643 165.734C463.12 110.288 548.166 91.5491 638.206 71.7137C752.523 46.5303 870.734 20.4882 983.626 -80.8285C1077.53 -165.096 1096.43 -290.363 1095.77 -380.61C1095.39 -431.728 1088.82 -477.27 1083.38 -506.472C1077.49 -538.11 1071.61 -557.903 1071.56 -558.102L1072.75 -558.36C1072.8 -558.165 1078.7 -538.323 1084.59 -506.636C1090.04 -477.396 1096.61 -431.801 1096.99 -380.617C1097.41 -323.077 1090.09 -270.353 1075.22 -223.903C1056.62 -165.815 1026.11 -117.434 984.51 -80.1059C957.383 -55.7603 929.25 -35.0731 898.503 -16.868C871.261 -0.736572 842.695 12.9966 811.166 25.1171C752.846 47.5392 694.718 60.3439 638.505 72.7296C548.616 92.5336 463.709 111.238 392.461 166.509C293.854 243.006 285.394 318.294 277.932 384.719C275.617 405.326 273.432 424.788 268.658 443.101C263.295 463.673 255.42 479.874 243.875 494.082C197.583 551.047 123.697 580.269 58.5041 606.053C12.6328 624.195 -26.9836 639.863 -50.4736 662.054C-80.1245 690.066 -107.877 735.028 -125.935 767.815C-145.51 803.356 -158.228 832.645 -158.355 832.938Z" fill="url(#paint30_linear)"/>
<path d="M-166.525 831.252L-167.703 830.952C-167.6 830.662 -157.361 801.453 -140.441 765.546C-124.818 732.393 -100.145 686.578 -71.3168 656.595C-47.0945 631.404 -4.40179 613.601 40.7946 594.753C102.784 568.903 173.041 539.6 217.105 483.805C242.881 451.165 246.494 412.587 250.323 371.744C256.463 306.202 263.422 231.915 358.945 154.284C429.394 97.0298 513.667 77.0304 602.894 55.8546C713.36 29.6378 827.587 2.53101 934.883 -96.2513C1025.63 -180.344 1041.67 -303.695 1039.14 -392.361C1037.72 -442.588 1030.31 -487.251 1024.35 -515.873C1017.89 -546.889 1011.69 -566.274 1011.62 -566.466L1012.81 -566.742C1012.87 -566.55 1019.08 -547.13 1025.55 -516.075C1031.52 -487.418 1038.94 -442.696 1040.37 -392.406C1041.98 -335.867 1035.85 -283.951 1022.17 -238.101C1005.05 -180.759 975.984 -132.794 935.779 -95.5357C909.986 -71.7905 883.154 -51.5293 853.74 -33.586C827.673 -17.6814 800.26 -4.04242 769.942 8.11639C713.843 30.6118 657.605 43.9611 603.213 56.8669C514.141 78.0044 430.012 97.9724 359.783 155.045C264.6 232.397 257.662 306.474 251.542 371.827C249.578 392.773 247.725 412.556 243.111 431.372C237.919 452.53 229.979 469.377 218.119 484.392C173.876 540.417 103.459 569.786 41.3305 595.696C-3.74313 614.494 -46.3172 632.249 -70.3718 657.261C-99.1022 687.137 -123.713 732.847 -139.304 765.93C-156.195 801.796 -166.422 830.962 -166.525 831.252Z" fill="url(#paint31_linear)"/>
<path d="M-174.698 829.566L-175.897 829.335C-175.819 829.045 -168.083 799.938 -153.847 763.696C-140.703 730.232 -119.172 683.663 -91.2436 651.844C-66.5549 623.714 -23.0154 604.608 23.0769 584.382C82.1823 558.444 149.171 529.044 191.34 474.132C217.808 439.666 220.741 400.414 223.842 358.858C228.657 294.381 234.115 221.299 326.238 142.844C395.53 83.8342 478.972 62.6374 567.311 40.1943C674.133 13.056 784.587 -15.0039 886.128 -111.66C974.046 -195.351 987.194 -316.814 982.743 -403.971C977.92 -498.446 951.955 -574.073 951.693 -574.827L952.871 -575.124C952.936 -574.935 959.51 -555.91 966.592 -525.448C973.129 -497.336 981.45 -453.452 983.974 -404.017C986.813 -348.445 981.896 -297.331 969.365 -252.096C953.693 -195.526 925.998 -148.042 887.044 -110.962C862.634 -87.7231 837.119 -67.8109 809.039 -50.084C784.141 -34.3645 757.874 -20.7954 728.738 -8.59814C674.808 13.9775 620.341 27.8156 567.667 41.1962C479.479 63.6009 396.18 84.7593 327.109 143.585C235.317 221.763 229.872 294.633 225.074 358.928C221.961 400.627 219.019 440.012 192.371 474.708C173.446 499.35 148.005 520.98 114.59 540.836C85.2055 558.298 53.9101 572.031 23.6414 585.314C-22.3199 605.484 -65.7368 624.538 -90.2577 652.472C-118.092 684.18 -139.565 730.637 -152.681 764.027C-166.897 800.225 -174.62 829.276 -174.698 829.566Z" fill="url(#paint32_linear)"/>
<path d="M-182.872 827.876L-184.087 827.719C-184.034 827.429 -178.814 798.409 -167.269 761.825C-156.608 728.047 -138.224 680.72 -111.166 647.089C-86.0973 615.929 -41.9032 595.556 4.88449 573.986C61.2654 547.996 125.165 518.536 165.579 464.455C192.739 428.111 194.948 388.207 197.284 345.96C199.076 313.606 200.925 280.153 213.451 244.416C227.7 203.761 253.898 166.792 293.543 131.401C361.689 70.5652 444.264 48.0977 531.687 24.3107C634.782 -3.74225 741.383 -32.7482 837.388 -127.073C922.295 -210.495 932.568 -330.044 926.235 -415.642C919.366 -508.44 892.047 -582.448 891.773 -583.184L892.943 -583.502C893.217 -582.765 920.581 -508.653 927.462 -415.732C931.504 -361.145 927.793 -310.841 916.433 -266.21C902.225 -210.394 875.945 -163.354 838.321 -126.385C815.236 -103.701 790.998 -84.1798 764.231 -66.7008C740.483 -51.1942 715.349 -37.7193 687.391 -25.4976C635.625 -2.86957 582.975 11.4572 532.063 25.3091C444.796 49.0543 362.364 71.4834 294.435 132.127C205.981 211.092 202.017 282.771 198.515 346.012C196.171 388.402 193.954 428.443 166.619 465.021C148.471 489.303 124.2 510.682 92.4095 530.384C64.4072 547.741 34.4454 561.551 5.46948 574.911C-41.1832 596.418 -85.2505 616.732 -110.152 647.686C-137.111 681.192 -155.442 728.392 -166.079 762.086C-177.607 798.619 -182.819 827.59 -182.872 827.876Z" fill="url(#paint33_linear)"/>
<path d="M-191.046 826.186L-192.269 826.106C-192.244 825.816 -189.552 796.873 -180.708 759.943C-172.538 725.844 -157.3 677.76 -131.085 642.341C-105.717 608.064 -61.0405 586.459 -13.7373 563.586C42.6927 536.298 101.045 508.081 139.827 454.785C167.674 416.514 169.118 375.981 170.648 333.064C171.785 301.164 172.959 268.175 184.545 232.805C197.709 192.618 222.672 155.705 260.853 119.962C327.817 57.2719 409.475 33.5058 495.929 8.3468C595.313 -20.5789 698.081 -50.489 788.65 -142.485C870.541 -225.67 877.934 -343.32 869.711 -427.371C860.797 -518.48 832.14 -590.822 831.849 -591.542L833.011 -591.88C833.302 -591.158 862.008 -518.697 870.934 -427.458C876.179 -373.862 873.671 -324.361 863.48 -280.337C850.737 -225.279 825.877 -178.672 789.59 -141.811C767.806 -119.682 744.828 -100.552 719.354 -83.328C696.743 -68.0413 672.725 -54.6642 645.938 -42.425C596.324 -19.7621 545.49 -4.96753 496.33 9.3382C410.032 34.4553 328.52 58.1795 261.765 120.67C176.596 200.389 174.085 270.891 171.867 333.096C170.333 376.156 168.885 416.828 140.862 455.337C123.443 479.277 100.26 500.418 69.9872 519.967C43.2818 537.213 14.5963 551.085 -13.1401 564.497C-60.3042 587.304 -104.85 608.846 -130.054 642.9C-156.166 678.186 -171.364 726.141 -179.509 760.152C-188.337 797.02 -191.021 825.9 -191.046 826.186Z" fill="url(#paint34_linear)"/>
<path d="M-199.227 824.497L-200.454 824.493C-200.454 824.207 -200.307 795.327 -194.163 758.044C-190.554 736.142 -185.613 715.668 -179.476 697.183C-171.802 674.063 -162.221 654.011 -151.008 637.583C-125.423 600.112 -80.4149 577.309 -32.7599 553.166C21.1133 525.874 76.8192 497.65 114.063 445.105C142.589 404.862 143.231 363.721 143.906 320.165C144.397 288.716 144.904 256.198 155.565 221.187C167.666 181.454 191.41 144.6 228.15 108.515C258.104 79.097 292.701 56.0675 337.034 36.0436C376.196 18.3517 416.909 5.69366 460.01 -7.70795C555.705 -37.4645 654.66 -68.2333 739.898 -157.904C818.751 -240.855 823.263 -356.589 813.166 -439.076C802.219 -528.503 772.216 -599.204 771.914 -599.909L773.067 -600.269C773.37 -599.564 803.418 -528.758 814.385 -439.209C820.829 -386.604 819.524 -337.913 810.507 -294.49C799.233 -240.182 775.796 -194.007 740.851 -157.245C655.4 -67.3501 556.286 -36.5289 460.432 -6.72699C375.161 19.7935 294.615 44.8373 229.079 109.203C147.166 189.654 146.086 258.997 145.133 320.179C144.454 363.882 143.812 405.158 115.11 445.646C98.3701 469.262 76.2096 490.169 47.3605 509.564C21.8742 526.701 -5.58401 540.613 -32.1381 554.063C-79.6499 578.133 -124.527 600.869 -149.948 638.107C-175.242 675.152 -187.294 723.854 -192.952 758.187C-199.08 795.404 -199.227 824.211 -199.227 824.497Z" fill="url(#paint35_linear)"/>
<path d="M-208.636 822.88C-208.661 822.594 -211.07 793.777 -207.638 756.138C-205.621 734.03 -202.013 713.242 -196.916 694.356C-190.538 670.733 -181.796 650.035 -170.93 632.828C-145.207 592.089 -100.002 568.121 -52.1468 542.749C-0.703583 515.471 52.4946 487.265 88.3023 435.432C117.499 393.167 117.295 351.451 117.082 307.284C116.931 276.288 116.775 244.238 126.532 209.58C137.594 170.286 160.139 133.489 195.46 97.0751C210.972 81.0798 227.725 66.9974 246.666 54.0182C263.581 42.4284 281.905 31.9697 302.678 22.045C341.321 3.58862 381.457 -9.73273 423.949 -23.836C515.978 -54.3815 611.141 -85.9672 691.159 -173.313C766.959 -256.058 768.592 -369.9 756.618 -450.83C743.633 -538.56 712.313 -607.579 711.998 -608.266L713.14 -608.647C713.454 -607.959 744.832 -538.818 757.837 -450.963C765.474 -399.35 765.372 -351.468 757.53 -308.649C747.724 -255.091 725.719 -209.343 692.129 -172.674C611.906 -85.0979 516.584 -53.4598 424.399 -22.8655C340.2 5.08276 260.681 31.4774 196.405 97.7419C117.683 178.895 118.015 247.1 118.309 307.277C118.526 351.59 118.726 393.45 89.3619 435.962C53.4028 488.015 0.0777893 516.292 -51.4963 543.636C-99.2086 568.934 -144.274 592.83 -169.846 633.324C-194.343 672.115 -203.253 721.564 -206.411 756.218C-209.839 793.78 -207.434 822.517 -207.409 822.804L-208.636 822.88Z" fill="url(#paint36_linear)"/>
<path d="M-216.81 821.268C-216.859 820.981 -221.838 792.22 -221.118 754.221C-220.696 731.9 -218.422 710.805 -214.36 691.518C-209.279 667.395 -201.367 646.048 -190.841 628.07C-165.044 583.998 -119.778 558.898 -71.8569 532.325C-22.7169 505.078 28.0922 476.903 62.5459 425.751C92.4013 381.424 91.3172 339.156 90.1677 294.409C89.3822 263.864 88.5722 232.282 97.4372 197.966C107.476 159.098 128.847 122.353 162.765 85.625C177.963 69.1689 194.416 54.6397 213.063 41.1997C229.709 29.205 247.758 18.3412 268.249 7.99768C306.348 -11.2407 345.874 -25.2322 387.72 -40.0477C476.112 -71.3401 567.511 -103.697 642.416 -188.732C715.136 -271.289 713.896 -383.221 700.049 -462.584C685.039 -548.617 652.398 -615.96 652.07 -616.631L653.204 -617.036C653.531 -616.365 686.229 -548.9 701.264 -462.741C710.096 -412.126 711.192 -365.055 704.528 -322.832C696.195 -270.025 675.626 -224.696 643.394 -188.108C568.285 -102.842 476.73 -70.429 388.186 -39.0842C305.141 -9.67676 226.702 18.0899 163.726 86.2813C88.1468 168.108 89.7954 232.306 91.3909 294.392C92.5445 339.288 93.6327 381.696 63.6054 426.278C29.0045 477.651 -21.9314 505.892 -71.19 533.208C-118.968 559.701 -164.099 584.724 -189.749 628.542C-213.468 669.068 -219.236 719.267 -219.895 754.242C-220.611 792.153 -215.648 820.828 -215.599 821.114L-216.81 821.268Z" fill="url(#paint37_linear)"/>
<path d="M-224.984 819.655C-225.061 819.369 -232.613 790.659 -234.618 752.305C-235.796 729.775 -234.855 708.368 -231.828 688.68C-228.04 664.055 -220.95 642.062 -210.76 623.316C-184.958 575.85 -139.741 549.647 -91.8737 521.908C-44.9305 494.707 3.61218 466.581 36.7854 416.078C67.2872 369.642 65.2826 326.864 63.1595 281.57C61.7481 251.475 60.2877 220.353 68.2731 186.373C77.3099 147.913 97.5231 111.217 130.066 74.1853C144.937 57.2649 161.079 42.2784 179.419 28.3741C195.783 15.9674 213.549 4.69519 233.734 -6.08472C271.256 -26.119 311.948 -41.4755 351.299 -56.3259C436.083 -88.3235 523.751 -121.407 593.664 -204.145C663.275 -286.523 659.168 -396.539 643.459 -474.324C626.433 -558.657 592.482 -624.339 592.139 -624.991L593.259 -625.417C593.599 -624.761 627.607 -558.982 644.662 -474.526C654.68 -424.91 656.984 -378.648 651.498 -337.023C644.637 -284.963 625.512 -240.052 594.659 -203.534C524.553 -120.569 436.725 -87.4229 351.794 -55.3693C269.967 -24.4852 192.682 4.68127 131.048 74.8171C58.5572 157.304 61.519 220.458 64.3826 281.528C66.514 326.972 68.5268 369.897 37.8531 416.588C4.53674 467.304 -44.1246 495.503 -91.1864 522.771C-138.911 550.426 -183.993 576.548 -209.651 623.752C-232.613 665.999 -235.24 716.938 -233.399 752.232C-231.402 790.499 -223.867 819.131 -223.793 819.418L-224.984 819.655Z" fill="url(#paint38_linear)"/>
<path d="M-233.157 818.039C-233.26 817.753 -243.401 789.096 -248.13 750.381C-250.908 727.638 -251.305 705.921 -249.308 685.834C-246.813 660.71 -240.541 638.075 -230.678 618.558C-218.95 595.361 -202.668 575.675 -179.431 556.615C-158.924 539.789 -136.215 526.045 -112.173 511.495C-67.3241 484.35 -20.9455 456.283 11.0209 406.405C42.1568 357.825 39.1909 314.562 36.0573 268.762C34.0282 239.11 31.9254 208.449 39.0477 174.79C47.1027 136.721 66.1786 100.074 97.3677 62.7491C111.899 45.3609 127.718 29.9171 145.739 15.5311C161.808 2.70544 179.276 -8.98206 199.145 -20.2018C236.062 -41.0461 276.034 -57.1217 314.693 -72.6702C395.902 -105.331 479.88 -139.102 544.917 -219.554C611.395 -301.782 604.411 -409.889 586.849 -486.095C567.806 -568.721 532.567 -632.706 532.215 -633.345L533.324 -633.796C533.68 -633.157 568.972 -569.074 588.048 -486.322C599.253 -437.711 602.755 -392.259 598.451 -351.231C593.071 -299.914 575.399 -255.412 545.928 -218.96C530.255 -199.575 513.245 -182.435 493.916 -166.562C476.714 -152.43 458.071 -139.647 436.925 -127.478C397.685 -104.891 355.758 -88.0302 315.213 -71.7242C234.679 -39.3355 158.613 -8.74121 98.37 63.353C28.9105 146.479 33.1691 208.61 37.2845 268.699C40.4304 314.653 43.4045 358.063 12.1009 406.907C-20.0005 456.995 -66.4937 485.135 -111.457 512.347C-159.018 541.133 -203.944 568.32 -229.549 618.973C-251.779 662.945 -251.26 714.631 -246.911 750.252C-242.194 788.872 -232.086 817.452 -231.983 817.735L-233.157 818.039Z" fill="url(#paint39_linear)"/>
<path d="M-241.323 816.419C-241.45 816.136 -254.189 787.528 -261.646 748.451C-266.028 725.498 -267.762 703.47 -266.797 682.982C-265.59 657.356 -260.137 634.078 -250.589 613.796C-238.917 589.007 -222.705 568.128 -199.559 548.09C-179.145 530.416 -156.592 516.162 -132.713 501.078C-89.8609 473.999 -45.5482 445.998 -14.7314 396.724C17.0182 345.959 13.0623 302.253 8.87317 255.978C6.23044 226.766 3.49365 196.559 9.7691 163.21C16.8546 125.522 34.8177 88.9168 64.6732 51.3058C78.8522 33.4463 94.3405 17.5383 112.025 2.67047C127.784 -10.5775 144.937 -22.6875 164.471 -34.3541C200.745 -56.0222 239.96 -72.824 277.887 -89.0776C355.565 -122.36 435.886 -156.777 496.174 -234.966C559.481 -317.065 549.63 -423.262 530.219 -497.891C509.171 -578.807 472.664 -641.088 472.295 -641.709L473.392 -642.181C473.76 -641.559 510.329 -579.18 531.413 -498.142C543.8 -450.537 548.497 -405.895 545.38 -365.463C541.481 -314.891 525.273 -270.793 497.205 -234.394C482.674 -215.546 466.777 -198.804 448.613 -183.21C432.434 -169.32 414.814 -156.672 394.748 -144.541C357.496 -122.018 317.307 -104.797 278.444 -88.1455C202.762 -55.715 124.503 -22.1848 65.7 51.8888C-0.79364 135.636 4.74133 196.775 10.0923 255.901C14.2936 302.33 18.2659 346.186 -13.6555 397.22C-44.6032 446.7 -89.0264 474.774 -131.989 501.919C-179.284 531.805 -223.957 560.036 -249.455 614.187C-270.965 659.876 -267.304 712.316 -260.444 748.259C-253.006 787.235 -240.308 815.759 -240.177 816.042L-241.323 816.419Z" fill="url(#paint40_linear)"/>
<path d="M-249.488 814.799C-249.644 814.516 -264.981 785.957 -275.175 746.52C-281.164 723.355 -284.236 701.016 -284.302 680.13C-284.384 654.004 -279.745 630.084 -270.503 609.038C-259.073 582.996 -242.489 560.263 -219.801 539.544C-199.522 521.025 -176.126 505.592 -153.499 490.668C-112.557 463.662 -70.2165 435.742 -40.4919 387.051C-8.14917 334.069 -13.1319 289.951 -18.4092 243.243C-21.6573 214.464 -25.0201 184.707 -19.5833 151.655C-13.4387 114.32 3.4281 77.7529 31.9785 39.8626C57.7635 5.64471 89.7299 -23.2705 129.702 -48.5377C165.301 -71.0401 203.711 -88.5784 240.86 -105.534C315.049 -139.402 391.762 -174.423 447.427 -250.375C507.522 -332.366 494.804 -436.65 473.551 -509.694C450.507 -588.892 412.748 -649.459 412.368 -650.063L413.448 -650.559C413.828 -649.955 451.653 -589.29 474.734 -509.969C488.295 -463.373 494.19 -419.544 492.259 -379.703C489.845 -329.874 475.11 -286.174 448.466 -249.82C435.044 -231.507 420.239 -215.159 403.208 -199.848C388.031 -186.202 371.414 -173.69 352.407 -161.605C317.107 -139.155 278.64 -121.595 241.437 -104.612C167.146 -70.698 90.3231 -35.6283 33.0135 40.4281C-30.551 124.782 -23.756 184.952 -17.1819 243.142C-11.8882 290.007 -6.88916 334.275 -39.4037 387.533C-69.2551 436.426 -111.702 464.423 -152.751 491.495C-199.69 522.453 -244.027 551.696 -269.354 609.404C-290.164 656.821 -283.353 710.019 -273.976 746.297C-263.811 785.622 -248.527 814.08 -248.371 814.363L-249.488 814.799Z" fill="url(#paint41_linear)"/>
<path d="M-257.654 813.176C-257.834 812.893 -275.785 784.387 -288.716 744.59C-296.313 721.212 -300.723 698.566 -301.819 677.278C-303.19 650.653 -299.356 626.091 -290.422 604.277C-279.094 576.618 -262.649 552.639 -240.149 530.967C-220.046 511.607 -196.896 495.671 -174.506 480.262C-135.393 453.34 -94.946 425.5 -66.2564 377.374C-33.3369 322.145 -39.375 277.657 -45.7732 230.557C-49.6228 202.204 -53.6032 172.884 -48.9887 140.122C-43.7769 103.122 -27.986 66.5822 -0.715973 28.4196C24.3613 -6.67456 55.6158 -36.4939 94.8313 -62.7455C129.714 -86.0963 167.273 -104.368 203.6 -122.039C277.605 -158.04 347.502 -192.042 398.68 -265.787C455.515 -347.691 439.932 -450.062 416.851 -521.517C391.823 -598.995 352.837 -657.841 352.444 -658.424L353.512 -658.944C353.904 -658.358 392.96 -599.417 418.029 -521.818C432.757 -476.23 439.85 -433.215 439.11 -393.967C438.185 -344.874 424.939 -301.569 399.735 -265.253C387.389 -247.464 373.647 -231.51 357.725 -216.482C343.526 -203.077 327.886 -190.712 309.923 -178.679C276.541 -156.316 239.768 -138.428 204.206 -121.128C131.392 -85.7053 56.0986 -49.0752 0.331299 28.9641C-60.3696 113.915 -52.3269 173.149 -44.55 230.435C-38.1355 277.698 -32.0728 322.34 -65.1601 377.849C-93.9683 426.177 -134.517 454.087 -173.733 481.079C-220.23 513.083 -264.15 543.311 -289.26 604.626C-309.383 653.76 -299.426 707.709 -287.53 744.314C-274.635 783.995 -256.75 812.401 -256.57 812.68L-257.654 813.176Z" fill="url(#paint42_linear)"/>
<path d="M-265.815 811.552C-266.019 811.27 -286.584 782.812 -302.261 742.659C-311.469 719.071 -317.217 696.115 -319.34 674.429C-321.999 647.305 -318.968 622.101 -310.332 599.518C-299.127 570.222 -282.854 544.987 -260.583 522.369C-240.693 502.171 -217.82 485.742 -195.701 469.859C-158.339 443.024 -119.708 415.278 -92.0127 367.697C-58.5408 310.192 -65.6713 265.368 -73.2149 217.913C-77.6576 189.975 -82.2517 161.088 -78.4472 128.598C-74.1517 91.9225 -59.4204 55.4111 -33.4063 16.9797C20.9128 -63.2763 94.721 -101.551 166.099 -138.565C236.561 -175.104 303.116 -209.615 349.932 -281.196C403.462 -363.037 385.012 -463.505 360.107 -533.376C333.107 -609.122 292.926 -666.216 292.521 -666.785L293.572 -667.326C293.977 -666.757 334.236 -609.551 361.281 -533.68C377.17 -489.108 385.454 -446.906 385.912 -408.248C386.485 -359.895 374.74 -316.975 351.004 -280.687C339.705 -263.41 326.999 -247.844 312.153 -233.099C298.906 -219.934 284.228 -207.716 267.28 -195.739C235.771 -173.47 202.238 -156.082 166.729 -137.668C95.4901 -100.723 21.821 -62.5222 -32.3467 17.5034C-90.2454 103.041 -80.9713 161.367 -71.9999 217.773C-64.4277 265.393 -57.2767 310.37 -90.9122 368.162C-118.722 415.938 -157.451 443.754 -194.907 470.658C-240.885 503.679 -284.314 534.87 -309.162 599.843C-328.606 650.688 -315.511 705.376 -301.103 742.303C-285.476 782.347 -264.976 810.718 -264.772 810.997L-265.815 811.552Z" fill="url(#paint43_linear)"/>
<path d="M-273.98 809.926C-274.214 809.643 -297.454 781.224 -315.896 740.705C-326.733 716.9 -333.818 693.633 -336.964 671.55C-340.9 643.926 -338.637 618.09 -330.243 594.757C-319.234 563.74 -303.177 537.192 -281.164 513.6C-261.507 492.536 -238.909 475.608 -217.051 459.236C-181.411 432.541 -144.56 404.935 -117.769 358.017C-83.9168 298.2 -92.1314 253.115 -100.833 205.381C-105.848 177.848 -111.036 149.376 -108.016 117.141C-104.609 80.7621 -90.896 44.2577 -66.101 5.53656C-13.4468 -76.6883 58.6309 -116.551 128.336 -155.105C195.32 -192.154 258.595 -227.146 301.189 -296.605C351.34 -378.39 330.038 -476.935 303.337 -545.2C274.381 -619.221 233.018 -674.59 232.601 -675.142L233.632 -675.707C234.045 -675.156 275.486 -619.692 304.49 -545.552C321.529 -501.996 331.012 -460.611 332.669 -422.54C334.743 -374.92 324.52 -332.387 302.277 -296.116C282.805 -264.363 258.083 -237.881 224.484 -212.781C194.809 -190.618 162.843 -172.94 129.003 -154.225C59.4245 -115.745 -12.5182 -75.9552 -65.025 6.03931C-120.211 92.2159 -109.743 149.662 -99.6178 205.22C-90.8878 253.119 -82.6446 298.365 -116.665 358.474C-143.562 405.584 -180.511 433.257 -216.241 460.022C-261.7 494.072 -304.642 526.237 -329.069 595.057C-347.965 647.602 -331.711 703.055 -314.751 740.321C-296.358 780.724 -273.207 809.036 -272.974 809.318L-273.98 809.926Z" fill="url(#paint44_linear)"/>
<path d="M-282.142 808.292C-282.4 808.01 -308.209 779.66 -329.371 738.788C-341.804 714.778 -350.227 691.204 -354.412 668.719C-359.644 640.592 -358.212 614.107 -350.157 589.992C-339.259 557.359 -323.411 529.585 -301.709 505.086C-282.338 483.222 -260.12 465.844 -238.635 449.043C-204.578 422.407 -169.364 394.864 -143.53 348.34C-109.031 286.209 -118.415 240.834 -128.348 192.796C-139.709 137.891 -151.45 81.1183 -98.7954 -5.90308C-47.8718 -90.0759 22.3691 -131.537 90.2986 -171.634C153.88 -209.165 213.934 -244.615 252.442 -312.014C299.156 -393.771 274.991 -490.41 246.494 -557.083C215.599 -629.366 173.103 -682.968 172.677 -683.503L173.692 -684.093C174.117 -683.558 216.7 -629.844 247.647 -557.442C265.827 -514.906 276.5 -474.334 279.364 -436.852C282.948 -389.969 274.263 -347.813 253.546 -311.557C214.896 -243.91 154.714 -208.386 90.9941 -170.775C23.1914 -130.748 -46.9186 -89.3638 -97.7072 -5.42487C-150.169 81.2823 -138.465 137.88 -127.145 192.614C-117.176 240.824 -107.759 286.356 -142.425 348.791C-168.361 395.499 -203.666 423.112 -237.809 449.818C-280.571 483.264 -324.794 517.849 -348.979 590.281C-367.11 644.575 -347.715 700.779 -328.25 738.366C-307.15 779.119 -281.434 807.367 -281.176 807.646L-282.142 808.292Z" fill="url(#paint45_linear)"/>
</g>
<defs>
<linearGradient id="paint0_linear" x1="0.000168176" y1="2.56907e-05" x2="627" y2="504.5" gradientUnits="userSpaceOnUse">
<stop stop-color="#CBD5E1"/>
<stop offset="1" stop-color="#CBD5E1"/>
</linearGradient>
<linearGradient id="paint1_linear" x1="0.000168176" y1="2.56907e-05" x2="627" y2="504.5" gradientUnits="userSpaceOnUse">
<stop stop-color="#CBD5E1"/>
<stop offset="1" stop-color="#CBD5E1"/>
</linearGradient>
<linearGradient id="paint2_linear" x1="0.000168176" y1="2.56907e-05" x2="627" y2="504.5" gradientUnits="userSpaceOnUse">
<stop stop-color="#CBD5E1"/>
<stop offset="1" stop-color="#CBD5E1"/>
</linearGradient>
<linearGradient id="paint3_linear" x1="0.000168176" y1="2.56907e-05" x2="627" y2="504.5" gradientUnits="userSpaceOnUse">
<stop stop-color="#CBD5E1"/>
<stop offset="1" stop-color="#CBD5E1"/>
</linearGradient>
<linearGradient id="paint4_linear" x1="0.000168176" y1="2.56907e-05" x2="627" y2="504.5" gradientUnits="userSpaceOnUse">
<stop stop-color="#CBD5E1"/>
<stop offset="1" stop-color="#CBD5E1"/>
</linearGradient>
<linearGradient id="paint5_linear" x1="0.000168176" y1="2.56907e-05" x2="627" y2="504.5" gradientUnits="userSpaceOnUse">
<stop stop-color="#CBD5E1"/>
<stop offset="1" stop-color="#CBD5E1"/>
</linearGradient>
<linearGradient id="paint6_linear" x1="0.000168176" y1="2.56907e-05" x2="627" y2="504.5" gradientUnits="userSpaceOnUse">
<stop stop-color="#CBD5E1"/>
<stop offset="1" stop-color="#CBD5E1"/>
</linearGradient>
<linearGradient id="paint7_linear" x1="0.000168176" y1="2.56907e-05" x2="627" y2="504.5" gradientUnits="userSpaceOnUse">
<stop stop-color="#CBD5E1"/>
<stop offset="1" stop-color="#CBD5E1"/>
</linearGradient>
<linearGradient id="paint8_linear" x1="0.000168176" y1="2.56907e-05" x2="627" y2="504.5" gradientUnits="userSpaceOnUse">
<stop stop-color="#CBD5E1"/>
<stop offset="1" stop-color="#CBD5E1"/>
</linearGradient>
<linearGradient id="paint9_linear" x1="0.000168176" y1="2.56907e-05" x2="627" y2="504.5" gradientUnits="userSpaceOnUse">
<stop stop-color="#CBD5E1"/>
<stop offset="1" stop-color="#CBD5E1"/>
</linearGradient>
<linearGradient id="paint10_linear" x1="0.000168176" y1="2.56907e-05" x2="627" y2="504.5" gradientUnits="userSpaceOnUse">
<stop stop-color="#CBD5E1"/>
<stop offset="1" stop-color="#CBD5E1"/>
</linearGradient>
<linearGradient id="paint11_linear" x1="0.000168176" y1="2.56907e-05" x2="627" y2="504.5" gradientUnits="userSpaceOnUse">
<stop stop-color="#CBD5E1"/>
<stop offset="1" stop-color="#CBD5E1"/>
</linearGradient>
<linearGradient id="paint12_linear" x1="0.000168176" y1="2.56907e-05" x2="627" y2="504.5" gradientUnits="userSpaceOnUse">
<stop stop-color="#CBD5E1"/>
<stop offset="1" stop-color="#CBD5E1"/>
</linearGradient>
<linearGradient id="paint13_linear" x1="0.000168176" y1="2.56907e-05" x2="627" y2="504.5" gradientUnits="userSpaceOnUse">
<stop stop-color="#CBD5E1"/>
<stop offset="1" stop-color="#CBD5E1"/>
</linearGradient>
<linearGradient id="paint14_linear" x1="0.000168176" y1="2.56907e-05" x2="627" y2="504.5" gradientUnits="userSpaceOnUse">
<stop stop-color="#CBD5E1"/>
<stop offset="1" stop-color="#CBD5E1"/>
</linearGradient>
<linearGradient id="paint15_linear" x1="0.000168176" y1="2.56907e-05" x2="627" y2="504.5" gradientUnits="userSpaceOnUse">
<stop stop-color="#CBD5E1"/>
<stop offset="1" stop-color="#CBD5E1"/>
</linearGradient>
<linearGradient id="paint16_linear" x1="0.000168176" y1="2.56907e-05" x2="627" y2="504.5" gradientUnits="userSpaceOnUse">
<stop stop-color="#CBD5E1"/>
<stop offset="1" stop-color="#CBD5E1"/>
</linearGradient>
<linearGradient id="paint17_linear" x1="0.000168176" y1="2.56907e-05" x2="627" y2="504.5" gradientUnits="userSpaceOnUse">
<stop stop-color="#CBD5E1"/>
<stop offset="1" stop-color="#CBD5E1"/>
</linearGradient>
<linearGradient id="paint18_linear" x1="0.000168176" y1="2.56907e-05" x2="627" y2="504.5" gradientUnits="userSpaceOnUse">
<stop stop-color="#CBD5E1"/>
<stop offset="1" stop-color="#CBD5E1"/>
</linearGradient>
<linearGradient id="paint19_linear" x1="0.000168176" y1="2.56907e-05" x2="627" y2="504.5" gradientUnits="userSpaceOnUse">
<stop stop-color="#CBD5E1"/>
<stop offset="1" stop-color="#CBD5E1"/>
</linearGradient>
<linearGradient id="paint20_linear" x1="0.000168176" y1="2.56907e-05" x2="627" y2="504.5" gradientUnits="userSpaceOnUse">
<stop stop-color="#CBD5E1"/>
<stop offset="1" stop-color="#CBD5E1"/>
</linearGradient>
<linearGradient id="paint21_linear" x1="0.000168176" y1="2.56907e-05" x2="627" y2="504.5" gradientUnits="userSpaceOnUse">
<stop stop-color="#CBD5E1"/>
<stop offset="1" stop-color="#CBD5E1"/>
</linearGradient>
<linearGradient id="paint22_linear" x1="0.000168176" y1="2.56907e-05" x2="627" y2="504.5" gradientUnits="userSpaceOnUse">
<stop stop-color="#CBD5E1"/>
<stop offset="1" stop-color="#CBD5E1"/>
</linearGradient>
<linearGradient id="paint23_linear" x1="0.000168176" y1="2.56907e-05" x2="627" y2="504.5" gradientUnits="userSpaceOnUse">
<stop stop-color="#CBD5E1"/>
<stop offset="1" stop-color="#CBD5E1"/>
</linearGradient>
<linearGradient id="paint24_linear" x1="0.000168176" y1="2.56907e-05" x2="627" y2="504.5" gradientUnits="userSpaceOnUse">
<stop stop-color="#CBD5E1"/>
<stop offset="1" stop-color="#CBD5E1"/>
</linearGradient>
<linearGradient id="paint25_linear" x1="0.000168176" y1="2.56907e-05" x2="627" y2="504.5" gradientUnits="userSpaceOnUse">
<stop stop-color="#CBD5E1"/>
<stop offset="1" stop-color="#CBD5E1"/>
</linearGradient>
<linearGradient id="paint26_linear" x1="0.000168176" y1="2.56907e-05" x2="627" y2="504.5" gradientUnits="userSpaceOnUse">
<stop stop-color="#CBD5E1"/>
<stop offset="1" stop-color="#CBD5E1"/>
</linearGradient>
<linearGradient id="paint27_linear" x1="0.000168176" y1="2.56907e-05" x2="627" y2="504.5" gradientUnits="userSpaceOnUse">
<stop stop-color="#CBD5E1"/>
<stop offset="1" stop-color="#CBD5E1"/>
</linearGradient>
<linearGradient id="paint28_linear" x1="0.000168176" y1="2.56907e-05" x2="627" y2="504.5" gradientUnits="userSpaceOnUse">
<stop stop-color="#CBD5E1"/>
<stop offset="1" stop-color="#CBD5E1"/>
</linearGradient>
<linearGradient id="paint29_linear" x1="0.000168176" y1="2.56907e-05" x2="627" y2="504.5" gradientUnits="userSpaceOnUse">
<stop stop-color="#CBD5E1"/>
<stop offset="1" stop-color="#CBD5E1"/>
</linearGradient>
<linearGradient id="paint30_linear" x1="0.000168176" y1="2.56907e-05" x2="627" y2="504.5" gradientUnits="userSpaceOnUse">
<stop stop-color="#CBD5E1"/>
<stop offset="1" stop-color="#CBD5E1"/>
</linearGradient>
<linearGradient id="paint31_linear" x1="0.000168176" y1="2.56907e-05" x2="627" y2="504.5" gradientUnits="userSpaceOnUse">
<stop stop-color="#CBD5E1"/>
<stop offset="1" stop-color="#CBD5E1"/>
</linearGradient>
<linearGradient id="paint32_linear" x1="0.000168176" y1="2.56907e-05" x2="627" y2="504.5" gradientUnits="userSpaceOnUse">
<stop stop-color="#CBD5E1"/>
<stop offset="1" stop-color="#CBD5E1"/>
</linearGradient>
<linearGradient id="paint33_linear" x1="0.000168176" y1="2.56907e-05" x2="627" y2="504.5" gradientUnits="userSpaceOnUse">
<stop stop-color="#CBD5E1"/>
<stop offset="1" stop-color="#CBD5E1"/>
</linearGradient>
<linearGradient id="paint34_linear" x1="0.000168176" y1="2.56907e-05" x2="627" y2="504.5" gradientUnits="userSpaceOnUse">
<stop stop-color="#CBD5E1"/>
<stop offset="1" stop-color="#CBD5E1"/>
</linearGradient>
<linearGradient id="paint35_linear" x1="0.000168176" y1="2.56907e-05" x2="627" y2="504.5" gradientUnits="userSpaceOnUse">
<stop stop-color="#CBD5E1"/>
<stop offset="1" stop-color="#CBD5E1"/>
</linearGradient>
<linearGradient id="paint36_linear" x1="0.000168176" y1="2.56907e-05" x2="627" y2="504.5" gradientUnits="userSpaceOnUse">
<stop stop-color="#CBD5E1"/>
<stop offset="1" stop-color="#CBD5E1"/>
</linearGradient>
<linearGradient id="paint37_linear" x1="0.000168176" y1="2.56907e-05" x2="627" y2="504.5" gradientUnits="userSpaceOnUse">
<stop stop-color="#CBD5E1"/>
<stop offset="1" stop-color="#CBD5E1"/>
</linearGradient>
<linearGradient id="paint38_linear" x1="0.000168176" y1="2.56907e-05" x2="627" y2="504.5" gradientUnits="userSpaceOnUse">
<stop stop-color="#CBD5E1"/>
<stop offset="1" stop-color="#CBD5E1"/>
</linearGradient>
<linearGradient id="paint39_linear" x1="0.000168176" y1="2.56907e-05" x2="627" y2="504.5" gradientUnits="userSpaceOnUse">
<stop stop-color="#CBD5E1"/>
<stop offset="1" stop-color="#CBD5E1"/>
</linearGradient>
<linearGradient id="paint40_linear" x1="0.000168176" y1="2.56907e-05" x2="627" y2="504.5" gradientUnits="userSpaceOnUse">
<stop stop-color="#CBD5E1"/>
<stop offset="1" stop-color="#CBD5E1"/>
</linearGradient>
<linearGradient id="paint41_linear" x1="0.000168176" y1="2.56907e-05" x2="627" y2="504.5" gradientUnits="userSpaceOnUse">
<stop stop-color="#CBD5E1"/>
<stop offset="1" stop-color="#CBD5E1"/>
</linearGradient>
<linearGradient id="paint42_linear" x1="0.000168176" y1="2.56907e-05" x2="627" y2="504.5" gradientUnits="userSpaceOnUse">
<stop stop-color="#CBD5E1"/>
<stop offset="1" stop-color="#CBD5E1"/>
</linearGradient>
<linearGradient id="paint43_linear" x1="0.000168176" y1="2.56907e-05" x2="627" y2="504.5" gradientUnits="userSpaceOnUse">
<stop stop-color="#CBD5E1"/>
<stop offset="1" stop-color="#CBD5E1"/>
</linearGradient>
<linearGradient id="paint44_linear" x1="0.000168176" y1="2.56907e-05" x2="627" y2="504.5" gradientUnits="userSpaceOnUse">
<stop stop-color="#CBD5E1"/>
<stop offset="1" stop-color="#CBD5E1"/>
</linearGradient>
<linearGradient id="paint45_linear" x1="0.000168176" y1="2.56907e-05" x2="627" y2="504.5" gradientUnits="userSpaceOnUse">
<stop stop-color="#CBD5E1"/>
<stop offset="1" stop-color="#CBD5E1"/>
</linearGradient>
<clipPath id="clip0">
<rect width="1440" height="768" fill="white"/>
</clipPath>
</defs>
</svg>
