<svg width="115" height="157" viewBox="0 0 115 157" fill="none" xmlns="http://www.w3.org/2000/svg">
<path fill-rule="evenodd" clip-rule="evenodd" d="M2.5 5C3.88071 5 5 3.88071 5 2.5C5 1.11929 3.88071 0 2.5 0C1.11929 0 0 1.11929 0 2.5C0 3.88071 1.11929 5 2.5 5Z" fill="#c4cede"/>
<path fill-rule="evenodd" clip-rule="evenodd" d="M46.5 5C47.8807 5 49 3.88071 49 2.5C49 1.11929 47.8807 0 46.5 0C45.1193 0 44 1.11929 44 2.5C44 3.88071 45.1193 5 46.5 5Z" fill="#c4cede"/>
<path fill-rule="evenodd" clip-rule="evenodd" d="M90.5 5C91.8807 5 93 3.88071 93 2.5C93 1.11929 91.8807 0 90.5 0C89.1193 0 88 1.11929 88 2.5C88 3.88071 89.1193 5 90.5 5Z" fill="#c4cede"/>
<path fill-rule="evenodd" clip-rule="evenodd" d="M24.5 5C25.8807 5 27 3.88071 27 2.5C27 1.11929 25.8807 0 24.5 0C23.1193 0 22 1.11929 22 2.5C22 3.88071 23.1193 5 24.5 5Z" fill="#c4cede"/>
<path fill-rule="evenodd" clip-rule="evenodd" d="M68.5 5C69.8807 5 71 3.88071 71 2.5C71 1.11929 69.8807 0 68.5 0C67.1193 0 66 1.11929 66 2.5C66 3.88071 67.1193 5 68.5 5Z" fill="#c4cede"/>
<path fill-rule="evenodd" clip-rule="evenodd" d="M112.5 5C113.881 5 115 3.88071 115 2.5C115 1.11929 113.881 0 112.5 0C111.119 0 110 1.11929 110 2.5C110 3.88071 111.119 5 112.5 5Z" fill="#c4cede"/>
<path fill-rule="evenodd" clip-rule="evenodd" d="M2.5 62C3.88071 62 5 60.8807 5 59.5C5 58.1193 3.88071 57 2.5 57C1.11929 57 0 58.1193 0 59.5C0 60.8807 1.11929 62 2.5 62Z" fill="#c4cede"/>
<path fill-rule="evenodd" clip-rule="evenodd" d="M46.5 62C47.8807 62 49 60.8807 49 59.5C49 58.1193 47.8807 57 46.5 57C45.1193 57 44 58.1193 44 59.5C44 60.8807 45.1193 62 46.5 62Z" fill="#c4cede"/>
<path fill-rule="evenodd" clip-rule="evenodd" d="M90.5 62C91.8807 62 93 60.8807 93 59.5C93 58.1193 91.8807 57 90.5 57C89.1193 57 88 58.1193 88 59.5C88 60.8807 89.1193 62 90.5 62Z" fill="#c4cede"/>
<path fill-rule="evenodd" clip-rule="evenodd" d="M24.5 62C25.8807 62 27 60.8807 27 59.5C27 58.1193 25.8807 57 24.5 57C23.1193 57 22 58.1193 22 59.5C22 60.8807 23.1193 62 24.5 62Z" fill="#c4cede"/>
<path fill-rule="evenodd" clip-rule="evenodd" d="M68.5 62C69.8807 62 71 60.8807 71 59.5C71 58.1193 69.8807 57 68.5 57C67.1193 57 66 58.1193 66 59.5C66 60.8807 67.1193 62 68.5 62Z" fill="#c4cede"/>
<path fill-rule="evenodd" clip-rule="evenodd" d="M112.5 62C113.881 62 115 60.8807 115 59.5C115 58.1193 113.881 57 112.5 57C111.119 57 110 58.1193 110 59.5C110 60.8807 111.119 62 112.5 62Z" fill="#c4cede"/>
<path fill-rule="evenodd" clip-rule="evenodd" d="M2.5 119C3.88071 119 5 117.881 5 116.5C5 115.119 3.88071 114 2.5 114C1.11929 114 0 115.119 0 116.5C0 117.881 1.11929 119 2.5 119Z" fill="#c4cede"/>
<path fill-rule="evenodd" clip-rule="evenodd" d="M46.5 119C47.8807 119 49 117.881 49 116.5C49 115.119 47.8807 114 46.5 114C45.1193 114 44 115.119 44 116.5C44 117.881 45.1193 119 46.5 119Z" fill="#c4cede"/>
<path fill-rule="evenodd" clip-rule="evenodd" d="M90.5 119C91.8807 119 93 117.881 93 116.5C93 115.119 91.8807 114 90.5 114C89.1193 114 88 115.119 88 116.5C88 117.881 89.1193 119 90.5 119Z" fill="#c4cede"/>
<path fill-rule="evenodd" clip-rule="evenodd" d="M24.5 119C25.8807 119 27 117.881 27 116.5C27 115.119 25.8807 114 24.5 114C23.1193 114 22 115.119 22 116.5C22 117.881 23.1193 119 24.5 119Z" fill="#c4cede"/>
<path fill-rule="evenodd" clip-rule="evenodd" d="M68.5 119C69.8807 119 71 117.881 71 116.5C71 115.119 69.8807 114 68.5 114C67.1193 114 66 115.119 66 116.5C66 117.881 67.1193 119 68.5 119Z" fill="#c4cede"/>
<path fill-rule="evenodd" clip-rule="evenodd" d="M112.5 119C113.881 119 115 117.881 115 116.5C115 115.119 113.881 114 112.5 114C111.119 114 110 115.119 110 116.5C110 117.881 111.119 119 112.5 119Z" fill="#c4cede"/>
<path fill-rule="evenodd" clip-rule="evenodd" d="M2.5 24C3.88071 24 5 22.8807 5 21.5C5 20.1193 3.88071 19 2.5 19C1.11929 19 0 20.1193 0 21.5C0 22.8807 1.11929 24 2.5 24Z" fill="#c4cede"/>
<path fill-rule="evenodd" clip-rule="evenodd" d="M46.5 24C47.8807 24 49 22.8807 49 21.5C49 20.1193 47.8807 19 46.5 19C45.1193 19 44 20.1193 44 21.5C44 22.8807 45.1193 24 46.5 24Z" fill="#c4cede"/>
<path fill-rule="evenodd" clip-rule="evenodd" d="M90.5 24C91.8807 24 93 22.8807 93 21.5C93 20.1193 91.8807 19 90.5 19C89.1193 19 88 20.1193 88 21.5C88 22.8807 89.1193 24 90.5 24Z" fill="#c4cede"/>
<path fill-rule="evenodd" clip-rule="evenodd" d="M24.5 24C25.8807 24 27 22.8807 27 21.5C27 20.1193 25.8807 19 24.5 19C23.1193 19 22 20.1193 22 21.5C22 22.8807 23.1193 24 24.5 24Z" fill="#c4cede"/>
<path fill-rule="evenodd" clip-rule="evenodd" d="M68.5 24C69.8807 24 71 22.8807 71 21.5C71 20.1193 69.8807 19 68.5 19C67.1193 19 66 20.1193 66 21.5C66 22.8807 67.1193 24 68.5 24Z" fill="#c4cede"/>
<path fill-rule="evenodd" clip-rule="evenodd" d="M112.5 24C113.881 24 115 22.8807 115 21.5C115 20.1193 113.881 19 112.5 19C111.119 19 110 20.1193 110 21.5C110 22.8807 111.119 24 112.5 24Z" fill="#c4cede"/>
<path fill-rule="evenodd" clip-rule="evenodd" d="M2.5 81C3.88071 81 5 79.8807 5 78.5C5 77.1193 3.88071 76 2.5 76C1.11929 76 0 77.1193 0 78.5C0 79.8807 1.11929 81 2.5 81Z" fill="#c4cede"/>
<path fill-rule="evenodd" clip-rule="evenodd" d="M46.5 81C47.8807 81 49 79.8807 49 78.5C49 77.1193 47.8807 76 46.5 76C45.1193 76 44 77.1193 44 78.5C44 79.8807 45.1193 81 46.5 81Z" fill="#c4cede"/>
<path fill-rule="evenodd" clip-rule="evenodd" d="M90.5 81C91.8807 81 93 79.8807 93 78.5C93 77.1193 91.8807 76 90.5 76C89.1193 76 88 77.1193 88 78.5C88 79.8807 89.1193 81 90.5 81Z" fill="#c4cede"/>
<path fill-rule="evenodd" clip-rule="evenodd" d="M24.5 81C25.8807 81 27 79.8807 27 78.5C27 77.1193 25.8807 76 24.5 76C23.1193 76 22 77.1193 22 78.5C22 79.8807 23.1193 81 24.5 81Z" fill="#c4cede"/>
<path fill-rule="evenodd" clip-rule="evenodd" d="M68.5 81C69.8807 81 71 79.8807 71 78.5C71 77.1193 69.8807 76 68.5 76C67.1193 76 66 77.1193 66 78.5C66 79.8807 67.1193 81 68.5 81Z" fill="#c4cede"/>
<path fill-rule="evenodd" clip-rule="evenodd" d="M112.5 81C113.881 81 115 79.8807 115 78.5C115 77.1193 113.881 76 112.5 76C111.119 76 110 77.1193 110 78.5C110 79.8807 111.119 81 112.5 81Z" fill="#c4cede"/>
<path fill-rule="evenodd" clip-rule="evenodd" d="M2.5 138C3.88071 138 5 136.881 5 135.5C5 134.119 3.88071 133 2.5 133C1.11929 133 0 134.119 0 135.5C0 136.881 1.11929 138 2.5 138Z" fill="#c4cede"/>
<path fill-rule="evenodd" clip-rule="evenodd" d="M46.5 138C47.8807 138 49 136.881 49 135.5C49 134.119 47.8807 133 46.5 133C45.1193 133 44 134.119 44 135.5C44 136.881 45.1193 138 46.5 138Z" fill="#c4cede"/>
<path fill-rule="evenodd" clip-rule="evenodd" d="M90.5 138C91.8807 138 93 136.881 93 135.5C93 134.119 91.8807 133 90.5 133C89.1193 133 88 134.119 88 135.5C88 136.881 89.1193 138 90.5 138Z" fill="#c4cede"/>
<path fill-rule="evenodd" clip-rule="evenodd" d="M24.5 138C25.8807 138 27 136.881 27 135.5C27 134.119 25.8807 133 24.5 133C23.1193 133 22 134.119 22 135.5C22 136.881 23.1193 138 24.5 138Z" fill="#c4cede"/>
<path fill-rule="evenodd" clip-rule="evenodd" d="M68.5 138C69.8807 138 71 136.881 71 135.5C71 134.119 69.8807 133 68.5 133C67.1193 133 66 134.119 66 135.5C66 136.881 67.1193 138 68.5 138Z" fill="#c4cede"/>
<path fill-rule="evenodd" clip-rule="evenodd" d="M112.5 138C113.881 138 115 136.881 115 135.5C115 134.119 113.881 133 112.5 133C111.119 133 110 134.119 110 135.5C110 136.881 111.119 138 112.5 138Z" fill="#c4cede"/>
<path fill-rule="evenodd" clip-rule="evenodd" d="M2.5 43C3.88071 43 5 41.8807 5 40.5C5 39.1193 3.88071 38 2.5 38C1.11929 38 0 39.1193 0 40.5C0 41.8807 1.11929 43 2.5 43Z" fill="#c4cede"/>
<path fill-rule="evenodd" clip-rule="evenodd" d="M46.5 43C47.8807 43 49 41.8807 49 40.5C49 39.1193 47.8807 38 46.5 38C45.1193 38 44 39.1193 44 40.5C44 41.8807 45.1193 43 46.5 43Z" fill="#c4cede"/>
<path fill-rule="evenodd" clip-rule="evenodd" d="M90.5 43C91.8807 43 93 41.8807 93 40.5C93 39.1193 91.8807 38 90.5 38C89.1193 38 88 39.1193 88 40.5C88 41.8807 89.1193 43 90.5 43Z" fill="#c4cede"/>
<path fill-rule="evenodd" clip-rule="evenodd" d="M24.5 43C25.8807 43 27 41.8807 27 40.5C27 39.1193 25.8807 38 24.5 38C23.1193 38 22 39.1193 22 40.5C22 41.8807 23.1193 43 24.5 43Z" fill="#c4cede"/>
<path fill-rule="evenodd" clip-rule="evenodd" d="M68.5 43C69.8807 43 71 41.8807 71 40.5C71 39.1193 69.8807 38 68.5 38C67.1193 38 66 39.1193 66 40.5C66 41.8807 67.1193 43 68.5 43Z" fill="#c4cede"/>
<path fill-rule="evenodd" clip-rule="evenodd" d="M112.5 43C113.881 43 115 41.8807 115 40.5C115 39.1193 113.881 38 112.5 38C111.119 38 110 39.1193 110 40.5C110 41.8807 111.119 43 112.5 43Z" fill="#c4cede"/>
<path fill-rule="evenodd" clip-rule="evenodd" d="M2.5 100C3.88071 100 5 98.8807 5 97.5C5 96.1193 3.88071 95 2.5 95C1.11929 95 0 96.1193 0 97.5C0 98.8807 1.11929 100 2.5 100Z" fill="#c4cede"/>
<path fill-rule="evenodd" clip-rule="evenodd" d="M46.5 100C47.8807 100 49 98.8807 49 97.5C49 96.1193 47.8807 95 46.5 95C45.1193 95 44 96.1193 44 97.5C44 98.8807 45.1193 100 46.5 100Z" fill="#c4cede"/>
<path fill-rule="evenodd" clip-rule="evenodd" d="M90.5 100C91.8807 100 93 98.8807 93 97.5C93 96.1193 91.8807 95 90.5 95C89.1193 95 88 96.1193 88 97.5C88 98.8807 89.1193 100 90.5 100Z" fill="#c4cede"/>
<path fill-rule="evenodd" clip-rule="evenodd" d="M24.5 100C25.8807 100 27 98.8807 27 97.5C27 96.1193 25.8807 95 24.5 95C23.1193 95 22 96.1193 22 97.5C22 98.8807 23.1193 100 24.5 100Z" fill="#c4cede"/>
<path fill-rule="evenodd" clip-rule="evenodd" d="M68.5 100C69.8807 100 71 98.8807 71 97.5C71 96.1193 69.8807 95 68.5 95C67.1193 95 66 96.1193 66 97.5C66 98.8807 67.1193 100 68.5 100Z" fill="#c4cede"/>
<path fill-rule="evenodd" clip-rule="evenodd" d="M112.5 100C113.881 100 115 98.8807 115 97.5C115 96.1193 113.881 95 112.5 95C111.119 95 110 96.1193 110 97.5C110 98.8807 111.119 100 112.5 100Z" fill="#c4cede"/>
<path fill-rule="evenodd" clip-rule="evenodd" d="M2.5 157C3.88071 157 5 155.881 5 154.5C5 153.119 3.88071 152 2.5 152C1.11929 152 0 153.119 0 154.5C0 155.881 1.11929 157 2.5 157Z" fill="#c4cede"/>
<path fill-rule="evenodd" clip-rule="evenodd" d="M46.5 157C47.8807 157 49 155.881 49 154.5C49 153.119 47.8807 152 46.5 152C45.1193 152 44 153.119 44 154.5C44 155.881 45.1193 157 46.5 157Z" fill="#c4cede"/>
<path fill-rule="evenodd" clip-rule="evenodd" d="M90.5 157C91.8807 157 93 155.881 93 154.5C93 153.119 91.8807 152 90.5 152C89.1193 152 88 153.119 88 154.5C88 155.881 89.1193 157 90.5 157Z" fill="#c4cede"/>
<path fill-rule="evenodd" clip-rule="evenodd" d="M24.5 157C25.8807 157 27 155.881 27 154.5C27 153.119 25.8807 152 24.5 152C23.1193 152 22 153.119 22 154.5C22 155.881 23.1193 157 24.5 157Z" fill="#c4cede"/>
<path fill-rule="evenodd" clip-rule="evenodd" d="M68.5 157C69.8807 157 71 155.881 71 154.5C71 153.119 69.8807 152 68.5 152C67.1193 152 66 153.119 66 154.5C66 155.881 67.1193 157 68.5 157Z" fill="#c4cede"/>
<path fill-rule="evenodd" clip-rule="evenodd" d="M112.5 157C113.881 157 115 155.881 115 154.5C115 153.119 113.881 152 112.5 152C111.119 152 110 153.119 110 154.5C110 155.881 111.119 157 112.5 157Z" fill="#c4cede"/>
</svg>
