<svg xmlns="http://www.w3.org/2000/svg" viewBox="0 0 128 128"><path fill-rule="evenodd" clip-rule="evenodd" fill="#439934" d="M82.362 33.544c1.227 3.547 2.109 7.168 2.4 10.92.36 4.656.196 9.28-.786 13.859l-.126.366c-.308.001-.622-.038-.923.009-2.543.4-5.083.814-7.624 1.226-2.627.426-5.256.835-7.878 1.289-.929.16-2.079-.031-2.454 1.253l-.18.061.127-7.678-.129-18.526 1.224-.21c2.001-.327 4.002-.66 6.006-.979 2.39-.379 4.782-.749 7.174-1.119 1.056-.162 2.113-.313 3.169-.471z"/><path fill-rule="evenodd" clip-rule="evenodd" fill="#45A538" d="M62.265 84.911c-1.291-1.11-2.627-2.171-3.864-3.339-6.658-6.28-11.529-13.673-13.928-22.586-.661-2.452-1.101-4.945-1.243-7.479-.1-1.774-.243-3.563-.117-5.328.333-4.693 1.012-9.341 2.388-13.862l.076-.105c.134.178.326.336.394.537 1.344 3.956 2.677 7.916 4.004 11.879 4.169 12.451 8.333 24.905 12.509 37.354.082.243.293.442.445.661l-.664 2.268z"/><path fill-rule="evenodd" clip-rule="evenodd" fill="#46A037" d="M82.362 33.544c-1.057.157-2.114.309-3.169.471-2.392.37-4.784.74-7.174 1.119-2.003.318-4.004.651-6.006.979l-1.224.21-.01-.798c-.041-.656-.109-1.312-.118-1.968l-.137-12.554c-.032-2.619-.08-5.238-.133-7.856-.033-1.627-.068-3.255-.141-4.88-.04-.873-.181-1.742-.237-2.615-.033-.502.011-1.008.022-1.512.624 1.209 1.235 2.427 1.876 3.627 1.013 1.897 2.628 3.295 4.083 4.82 5.746 6.031 9.825 13.039 12.368 20.957z"/><path fill-rule="evenodd" clip-rule="evenodd" fill="#409433" d="M64.792 62.527l.18-.061c.375-1.284 1.525-1.093 2.454-1.253 2.622-.454 5.251-.863 7.878-1.289 2.541-.411 5.081-.825 7.624-1.226.301-.047.615-.008.923-.009-.475 1.696-.849 3.429-1.452 5.078-.685 1.87-1.513 3.696-2.392 5.486-1.314 2.675-2.951 5.171-4.853 7.458-1.466 1.762-3.1 3.393-4.737 5.002-.906.889-1.972 1.614-2.966 2.414l-.258-.176-.927-.792-.959-2.104c-.661-2.462-1.007-4.968-1.065-7.516l.018-.428.131-1.854c.043-.633.101-1.265.128-1.898.096-2.276.182-4.554.273-6.832z"/><path fill-rule="evenodd" clip-rule="evenodd" fill="#4FAA41" d="M64.792 62.527c-.09 2.278-.176 4.557-.273 6.835-.027.634-.084 1.266-.128 1.898l-.584.221c-1.298-3.821-2.597-7.602-3.867-11.392-2.101-6.271-4.176-12.551-6.274-18.824-1.693-5.062-3.401-10.121-5.118-15.176-.081-.236-.311-.422-.471-.631l3.74-6.877c.129.223.298.432.379.672 1.73 5.12 3.457 10.241 5.169 15.367 2.228 6.67 4.441 13.343 6.667 20.014.089.266.235.512.375.811l.512-.596c-.043 2.56-.085 5.118-.127 7.678z"/><path fill-rule="evenodd" clip-rule="evenodd" fill="#4AA73C" d="M48.076 25.458c.161.209.391.395.471.631 1.717 5.055 3.425 10.113 5.118 15.176 2.098 6.273 4.173 12.553 6.274 18.824 1.27 3.79 2.569 7.57 3.867 11.392l.584-.221-.131 1.854-.119.427c-.203 2.029-.374 4.062-.622 6.087-.124 1.015-.389 2.011-.59 3.015-.151-.219-.363-.418-.445-.661-4.177-12.449-8.34-24.903-12.509-37.354-1.327-3.963-2.661-7.923-4.004-11.879-.068-.201-.26-.359-.394-.537l2.5-6.754z"/><path fill-rule="evenodd" clip-rule="evenodd" fill="#57AE47" d="M64.918 54.849l-.512.596c-.14-.299-.286-.545-.375-.811-2.226-6.671-4.439-13.344-6.667-20.014-1.712-5.126-3.439-10.247-5.169-15.367-.081-.24-.25-.449-.379-.672l4.625-6.084c.146.194.354.367.429.586 1.284 3.76 2.556 7.523 3.822 11.289 1.182 3.518 2.346 7.04 3.542 10.552.08.235.359.401.545.601l.01.798.129 18.526z"/><path fill-rule="evenodd" clip-rule="evenodd" fill="#60B24F" d="M64.779 35.525c-.187-.199-.465-.365-.545-.601-1.195-3.512-2.36-7.034-3.542-10.552-1.266-3.766-2.538-7.529-3.822-11.289-.075-.219-.283-.392-.429-.586 1.504-1.473 2.961-2.999 4.526-4.404 1.391-1.248 2.509-2.586 2.561-4.559l.11-.393.396.998c-.01.504-.055 1.01-.022 1.512.057.873.198 1.742.237 2.615.073 1.625.108 3.253.141 4.88.053 2.618.101 5.237.133 7.856l.137 12.554c.01.657.079 1.313.119 1.969z"/><path fill-rule="evenodd" clip-rule="evenodd" fill="#A9AA88" d="M62.929 82.642c.201-1.004.466-2 .59-3.015.248-2.024.419-4.058.622-6.087l.051-.008.05.009c.058 2.548.404 5.054 1.065 7.516-.135.178-.324.335-.396.535-.555 1.566-1.079 3.145-1.637 4.71-.076.214-.29.381-.439.568l-.571-1.96.665-2.268z"/><path fill-rule="evenodd" clip-rule="evenodd" fill="#B6B598" d="M62.835 86.871c.149-.188.363-.354.439-.568.558-1.565 1.082-3.144 1.637-4.71.071-.2.261-.357.396-.535l.959 2.104c-.189.268-.451.511-.556.81l-1.836 5.392c-.076.217-.333.369-.507.552l-.532-3.045z"/><path fill-rule="evenodd" clip-rule="evenodd" fill="#C2C1A7" d="M63.367 89.915c.173-.183.431-.335.507-.552l1.836-5.392c.104-.299.367-.542.556-.81l.928.791c-.448.443-.697.955-.547 1.602l-.282.923c-.128.158-.314.296-.377.477-.641 1.836-1.252 3.682-1.898 5.517-.082.232-.309.415-.468.621l-.255-3.177z"/><path fill-rule="evenodd" clip-rule="evenodd" fill="#CECDB7" d="M63.621 93.091c.16-.206.387-.389.468-.621.646-1.835 1.258-3.681 1.898-5.517.063-.181.249-.318.377-.477l-.389 4.236c-.104.12-.254.225-.304.364l-1.294 3.708c-.091.253-.265.479-.401.716-.121-.158-.337-.311-.347-.475-.038-.642-.011-1.289-.008-1.934z"/><path fill-rule="evenodd" clip-rule="evenodd" fill="#DBDAC7" d="M63.977 95.501c.136-.237.31-.463.401-.716l1.294-3.708c.05-.14.201-.244.304-.364l.01 2.78-.931 2.387-1.078-.379z"/><path fill-rule="evenodd" clip-rule="evenodd" fill="#EBE9DC" d="M65.055 95.88l.931-2.387.192 2.824-1.123-.437z"/><path fill-rule="evenodd" clip-rule="evenodd" fill="#CECDB7" d="M66.646 85.554c-.149-.646.099-1.158.547-1.602l.258.176-.805 1.426z"/><path fill-rule="evenodd" clip-rule="evenodd" fill="#4FAA41" d="M64.242 73.542l-.05-.009-.051.008.119-.427-.018.428z"/></svg>